<svg width="32" height="24" viewBox="0 0 32 24" fill="none" xmlns="http://www.w3.org/2000/svg">
<g clip-path="url(#clip0_13_649)">
<rect width="32" height="24" rx="3.5" fill="white"/>
<path fill-rule="evenodd" clip-rule="evenodd" d="M0 0V24H32V0H0Z" fill="#4EC7EE"/>
<mask id="mask0_13_649" style="mask-type:luminance" maskUnits="userSpaceOnUse" x="0" y="0" width="32" height="24">
<path fill-rule="evenodd" clip-rule="evenodd" d="M0 0V24H32V0H0Z" fill="white"/>
</mask>
<g mask="url(#mask0_13_649)">
</g>
<path d="M5.1301 18.1346C5.47948 18.1833 5.72873 18.1133 5.86785 17.9308C6.14611 17.5656 5.89834 16.8898 5.89538 16.8827C5.88227 16.8669 4.57064 13.9039 4.46773 13.6701C4.37073 13.4662 4.30976 13.2693 4.2837 13.0698C4.26911 12.9672 4.31271 12.806 4.42431 12.7091C4.48953 12.6506 4.60704 12.5908 4.79106 12.635C4.8027 12.6379 4.81416 12.6406 4.82727 12.6435C5.2489 12.7662 5.33592 13.1583 5.33592 13.2595C5.33592 13.4164 5.25481 13.6972 4.95051 13.6289C4.77517 13.5903 4.69258 13.4606 4.68963 13.3535C4.68815 13.2781 4.72732 13.2066 4.80547 13.221C4.80843 13.2224 4.81138 13.2224 4.81416 13.2224C4.84889 13.2312 4.87642 13.2483 4.89674 13.2768C4.95624 13.3551 4.94016 13.4907 4.94016 13.4935C4.94016 13.4935 4.94016 13.4964 4.94164 13.4991C4.9446 13.502 4.94608 13.502 4.94903 13.502C4.99966 13.5049 5.03606 13.4906 5.05915 13.4593C5.09832 13.408 5.0852 13.3253 5.07947 13.2966C5.1968 13.3081 5.24761 13.2254 5.2489 13.2224C5.25038 13.2195 5.25038 13.2168 5.2489 13.2154C5.20548 13.1512 5.10682 13.0941 5.08077 13.0799C5.09961 13.0258 5.09666 12.9774 5.07208 12.9318C5.02867 12.8491 4.93296 12.812 4.92871 12.8091C4.92575 12.8091 4.92298 12.8106 4.9215 12.812C4.92002 12.8149 4.92003 12.8176 4.92298 12.8206C4.96363 12.8691 4.94183 12.9376 4.93314 12.9574C4.89545 12.9376 4.85499 12.9203 4.81582 12.9118C4.68538 12.8805 4.56362 12.916 4.48971 13.006C4.40269 13.1145 4.39696 13.2826 4.47382 13.4766C4.59706 13.7903 4.84335 13.893 4.97952 13.923C5.01869 13.9315 5.05213 13.9357 5.07522 13.9357C4.93314 14.0011 4.94478 14.1567 4.9433 14.1595C4.9433 14.1624 4.94626 14.1636 4.94903 14.1666C4.9518 14.1695 4.95476 14.168 4.95624 14.1651C4.97933 14.1407 5.03883 14.1495 5.07208 14.158C5.08372 14.1609 5.09684 14.1622 5.10405 14.1651C4.96788 14.3649 4.99097 14.4774 4.99245 14.4845C4.99245 14.4859 4.99393 14.4888 4.9967 14.4888C4.99966 14.4917 5.00095 14.4917 5.00409 14.4917C5.10553 14.4461 5.16927 14.4447 5.20548 14.4517C5.23449 14.4588 5.25038 14.4716 5.25777 14.4774C5.18239 14.6513 5.18387 14.8224 5.26202 14.9822C5.41851 15.3057 5.83164 15.4755 5.8346 15.4769C5.83885 15.4784 5.8418 15.4769 5.84328 15.4755C5.84476 15.4726 5.84476 15.4698 5.84328 15.4669C5.53602 14.9907 5.54471 14.7968 5.55468 14.5943C5.55616 14.5572 5.55893 14.5186 5.55893 14.4787C5.55893 14.3361 5.62138 14.0582 5.67644 13.8143C5.72282 13.6103 5.76624 13.4193 5.76624 13.3366C5.76624 13.2397 5.6879 12.8518 5.38359 12.5752C5.46766 12.5554 5.52124 12.5139 5.52124 12.4541C5.52124 12.3956 5.46748 12.3329 5.38359 12.2787C5.6879 12.1246 5.76624 11.761 5.76624 11.6656C5.76624 11.5829 5.72282 11.3746 5.67644 11.155C5.62138 10.8898 5.55893 10.5861 5.55893 10.4436C5.55893 10.4034 5.55598 10.365 5.55468 10.328C5.54452 10.1196 5.53584 9.92734 5.84328 9.56307C5.84476 9.56016 5.84476 9.55744 5.84328 9.55453C5.8418 9.55089 5.83885 9.54962 5.8346 9.54962C5.83164 9.5518 5.4187 9.56671 5.26202 9.82046C5.18387 9.94951 5.18239 10.1184 5.25777 10.3238C5.25038 10.3267 5.23597 10.3338 5.20548 10.328C5.16927 10.3194 5.10553 10.2909 5.00409 10.1996C5.00114 10.1982 4.99818 10.1982 4.9967 10.1967C4.99375 10.1982 4.99245 10.1996 4.99245 10.2024C4.99097 10.2053 4.96788 10.3107 5.10405 10.5701C5.09684 10.5686 5.0852 10.5672 5.07208 10.5644C5.03883 10.5574 4.97933 10.5403 4.95624 10.5046C4.95476 10.5017 4.95199 10.499 4.94903 10.5005C4.94608 10.499 4.9433 10.5019 4.9433 10.5046C4.9433 10.5061 4.93314 10.6586 5.07522 10.784C5.05213 10.7769 5.01869 10.7669 4.97952 10.7584C4.84335 10.7269 4.59688 10.7099 4.47382 10.9607C4.39696 11.1176 4.40269 11.2888 4.48971 11.4413C4.56362 11.5682 4.6839 11.6625 4.81582 11.6938C4.85499 11.7023 4.89545 11.7052 4.93314 11.7023C4.94183 11.7267 4.96363 11.8023 4.92298 11.8337C4.92003 11.8366 4.92002 11.8394 4.9215 11.8423C4.92298 11.8452 4.92575 11.8479 4.92871 11.8479C4.93296 11.8479 5.02867 11.8535 5.07208 11.7908C5.09684 11.7554 5.09961 11.7052 5.08077 11.6454C5.10682 11.6425 5.2053 11.6283 5.2489 11.5827C5.25038 11.5798 5.25038 11.5771 5.2489 11.5756C5.24742 11.5713 5.1968 11.4686 5.07947 11.4258C5.0852 11.4031 5.09832 11.326 5.05915 11.2561C5.03606 11.2146 4.99966 11.1846 4.94903 11.1634C4.94608 11.1634 4.94478 11.1634 4.94164 11.1648C4.94016 11.1663 4.94016 11.1663 4.94016 11.169C4.94016 11.1717 4.95753 11.3146 4.89674 11.3659C4.87513 11.3857 4.84464 11.39 4.80547 11.38C4.72732 11.3571 4.68815 11.2659 4.68963 11.1919C4.69258 11.0863 4.77517 10.998 4.95051 11.0378C5.25481 11.1063 5.33592 11.4171 5.33592 11.574C5.33592 11.6723 5.2489 12.0359 4.82727 11.9644C4.81416 11.9644 4.80252 11.9615 4.79106 11.9588C4.60704 11.9146 4.48953 11.7963 4.42431 11.705C4.31271 11.5511 4.26929 11.3659 4.2837 11.2715C4.31123 11.0861 4.37073 10.9207 4.46773 10.7655C4.57064 10.6128 5.88227 8.20399 5.89538 8.16618C5.89834 8.15909 6.14611 7.56797 5.86785 7.10737C5.72725 6.87489 5.47948 6.71311 5.1301 6.61187C5.47948 6.66331 5.72725 6.59133 5.86785 6.40865C6.14611 6.04511 5.89834 5.36711 5.89538 5.35984C5.88227 5.34348 4.57064 2.38192 4.46773 2.14871C4.37073 1.94349 4.30976 1.74664 4.2837 1.54851C4.26911 1.44436 4.31271 1.28385 4.42431 1.18697C4.48953 1.12917 4.60704 1.06937 4.79106 1.11281C4.8027 1.11572 4.81416 1.1179 4.82727 1.12281C5.2489 1.24477 5.33592 1.63685 5.33592 1.73737C5.33592 1.89423 5.25481 2.17434 4.95051 2.106C4.77517 2.06673 4.69258 1.93913 4.68963 1.83152C4.68815 1.75536 4.72732 1.68393 4.80547 1.69829C4.80843 1.69901 4.81138 1.69901 4.81416 1.69974C4.84889 1.70828 4.87642 1.72755 4.89674 1.75463C4.95624 1.8337 4.94016 1.96858 4.94016 1.97003C4.94016 1.97294 4.94016 1.97567 4.94164 1.97785C4.9446 1.98003 4.94608 1.98003 4.94903 1.98076C4.99966 1.98366 5.03606 1.96876 5.05915 1.93804C5.09832 1.88605 5.0852 1.80335 5.07947 1.77627C5.1968 1.78481 5.24761 1.70483 5.2489 1.70138C5.25038 1.69847 5.25038 1.69574 5.2489 1.69283C5.20548 1.63085 5.10682 1.57232 5.08077 1.55814C5.09961 1.50543 5.09666 1.45472 5.07208 1.40982C5.02867 1.32857 4.93296 1.29003 4.92871 1.28858C4.92575 1.28713 4.92298 1.28785 4.9215 1.29003C4.92002 1.29294 4.92003 1.29712 4.92298 1.2993C4.96363 1.34856 4.94183 1.41473 4.93314 1.43399C4.89545 1.414 4.85499 1.39909 4.81582 1.38982C4.68538 1.35929 4.56362 1.39473 4.48971 1.48325C4.40269 1.5925 4.39696 1.75918 4.47382 1.95531C4.59706 2.26959 4.84335 2.37101 4.97952 2.40173C5.01869 2.41028 5.05213 2.41318 5.07522 2.41518C4.93314 2.4808 4.94478 2.63549 4.9433 2.63694C4.9433 2.63985 4.94626 2.6433 4.94903 2.64548C4.95199 2.64621 4.95476 2.64694 4.95624 2.64403C4.97933 2.61986 5.03883 2.6284 5.07208 2.63622C5.08372 2.63912 5.09684 2.64112 5.10405 2.64258C4.96788 2.84216 4.99097 2.95686 4.99245 2.96195C4.99245 2.96485 4.99393 2.96631 4.9967 2.96849C4.99947 2.97067 5.00095 2.96922 5.00409 2.96849C5.10553 2.92432 5.16927 2.92359 5.20548 2.93141C5.23449 2.93777 5.25038 2.94922 5.25777 2.95631C5.18239 3.13026 5.18387 3.29931 5.26202 3.46108C5.41851 3.78463 5.83164 3.95513 5.8346 3.9544C5.83885 3.95659 5.8418 3.95586 5.84328 3.95368C5.84476 3.95077 5.84476 3.94804 5.84328 3.94513C5.53602 3.46963 5.54471 3.27495 5.55468 3.07246C5.55616 3.03538 5.55893 2.99757 5.55893 2.95758C5.55893 2.81508 5.62138 2.5377 5.67644 2.29176C5.72282 2.08927 5.76624 1.89751 5.76624 1.81625C5.76624 1.71719 5.6879 1.33002 5.38359 1.05192C5.46766 1.03337 5.52124 0.992841 5.52124 0.932857C5.52124 0.872873 5.46748 0.811072 5.38359 0.758177C5.6879 0.602764 5.76624 0.239771 5.76624 0.142161C5.76624 0.0609107 5.72282 -0.146489 5.67644 -0.366066C5.62138 -0.633448 5.55893 -0.935003 5.55893 -1.07769C5.55893 -1.11768 5.55598 -1.15676 5.55468 -1.19384C5.54452 -1.40197 5.53584 -1.59519 5.84328 -1.95818C5.84476 -1.96109 5.84476 -1.96382 5.84328 -1.96672C5.8418 -1.97036 5.83885 -1.97254 5.8346 -1.97181C5.83164 -1.97109 5.4187 -1.95618 5.26202 -1.7008C5.18387 -1.57174 5.18239 -1.40415 5.25777 -1.19893C5.25038 -1.19475 5.23597 -1.18893 5.20548 -1.1953C5.16927 -1.20311 5.10553 -1.23092 5.00409 -1.32072C5.00114 -1.3229 4.99818 -1.32435 4.9967 -1.32363C4.99375 -1.3229 4.99245 -1.32144 4.99245 -1.31872C4.99097 -1.31508 4.96788 -1.21038 5.10405 -0.950816C5.09684 -0.95227 5.0852 -0.954452 5.07208 -0.957179C5.03883 -0.964995 4.97933 -0.982081 4.95624 -1.01771C4.95476 -1.02062 4.95199 -1.02134 4.94903 -1.02189C4.94608 -1.02116 4.9433 -1.01898 4.9433 -1.01625C4.9433 -1.0148 4.93314 -0.864476 5.07522 -0.735965C5.05213 -0.743781 5.01869 -0.755233 4.97952 -0.763776C4.84335 -0.794313 4.59688 -0.810127 4.47382 -0.559831C4.39696 -0.402237 4.40269 -0.232647 4.48971 -0.0792336C4.5651 0.0461869 4.68538 0.141798 4.81582 0.172517C4.85499 0.181787 4.89545 0.185241 4.93314 0.182514C4.94183 0.206144 4.96363 0.282305 4.92298 0.313024C4.92003 0.313751 4.92002 0.318113 4.9215 0.320839C4.92298 0.324475 4.92575 0.326475 4.92871 0.325021C4.93296 0.326475 5.02867 0.330656 5.07208 0.269399C5.09684 0.2345 5.09961 0.18524 5.08077 0.123983C5.10682 0.121075 5.2053 0.105444 5.2489 0.062001C5.25038 0.0590928 5.25038 0.0563667 5.2489 0.0534585C5.24742 0.0485506 5.1968 -0.0512414 5.07947 -0.0941389C5.0852 -0.118496 5.09832 -0.195384 5.05915 -0.265911C5.03606 -0.306627 4.99966 -0.337346 4.94903 -0.357159C4.94608 -0.357886 4.94478 -0.357886 4.94164 -0.357159C4.94016 -0.356431 4.94016 -0.353524 4.94016 -0.350797C4.94016 -0.349343 4.95605 -0.207562 4.89674 -0.155395C4.87513 -0.134673 4.84464 -0.130492 4.80547 -0.140308C4.72732 -0.163211 4.68815 -0.254459 4.68963 -0.329348C4.69258 -0.435501 4.77517 -0.522569 4.95051 -0.48258C5.25481 -0.414234 5.33592 -0.103955 5.33592 0.0527303C5.33592 0.151794 5.2489 0.515515 4.82727 0.444807C4.81416 0.443353 4.80252 0.440626 4.79106 0.437718C4.60704 0.394275 4.48953 0.274489 4.42431 0.183968C4.31271 0.0300093 4.26929 -0.154668 4.2837 -0.250279C4.31123 -0.434229 4.37073 -0.599638 4.46773 -0.756505C4.49082 -0.794858 4.57932 -0.950454 4.74598 -1.24692C4.77203 -1.31108 4.7966 -1.37452 4.82284 -1.43868C4.82432 -1.43941 4.89674 -1.68044 4.76926 -1.87711C4.69535 -1.98908 4.5736 -2.0667 4.40546 -2.10959L4.40121 -2.11032C4.36204 -2.12032 4.15622 -2.16667 3.99972 -2.07688C3.84323 -2.25374 3.63888 -2.32136 3.59972 -2.33353C3.59824 -2.33426 3.59676 -2.33499 3.59547 -2.33499C3.42733 -2.38552 3.3041 -2.37625 3.23167 -2.30572C3.10418 -2.1803 3.17661 -1.89856 3.17661 -1.89583C3.20266 -1.81895 3.22723 -1.7426 3.25347 -1.66553C3.25347 -1.66481 3.25495 -1.66335 3.25495 -1.66335C3.42031 -1.27327 3.50863 -1.06806 3.5332 -1.0168C3.62891 -0.806491 3.68969 -0.607636 3.71722 -0.407872C3.73182 -0.304446 3.68674 -0.14467 3.57662 -0.0519681C3.50992 0.00219917 3.39241 0.0563655 3.20987 -0.00270939C3.19693 -0.00689006 3.18529 -0.0105252 3.17365 -0.0156147C2.75036 -0.181025 2.66353 -0.594549 2.66353 -0.692886C2.66353 -0.85048 2.74464 -1.11423 3.04894 -1.01226C3.22576 -0.953907 3.30687 -0.821942 3.30982 -0.713608C3.31278 -0.637264 3.27065 -0.568919 3.19527 -0.589459C3.19231 -0.590187 3.18936 -0.590914 3.18659 -0.591641C3.15185 -0.603092 3.12284 -0.624541 3.10252 -0.655078C3.04303 -0.740691 3.0591 -0.873201 3.06058 -0.874655C3.06058 -0.877563 3.0591 -0.88029 3.05762 -0.882471C3.05615 -0.884652 3.05337 -0.885379 3.05337 -0.885379C3.00127 -0.893922 2.96487 -0.883925 2.94178 -0.855387C2.90261 -0.807582 2.91425 -0.72415 2.91998 -0.696339C2.80413 -0.718515 2.75332 -0.647081 2.75036 -0.643627C2.74889 -0.641446 2.75036 -0.63781 2.75184 -0.634357C2.79526 -0.566557 2.89245 -0.49603 2.91998 -0.478217C2.90113 -0.427685 2.90409 -0.376245 2.92718 -0.328439C2.9706 -0.242826 3.06631 -0.193748 3.07074 -0.192294C3.0737 -0.190113 3.07647 -0.190113 3.07795 -0.192294C3.0809 -0.194476 3.07942 -0.199383 3.07795 -0.200837C3.0373 -0.254277 3.0591 -0.318441 3.06631 -0.337709C3.10548 -0.313352 3.14446 -0.294994 3.18511 -0.281361C3.31555 -0.239372 3.43731 -0.267001 3.50974 -0.351887C3.59676 -0.456041 3.60249 -0.622905 3.5271 -0.822487C3.40387 -1.14186 3.15758 -1.2631 3.02141 -1.30945C2.98224 -1.32235 2.9488 -1.32944 2.92423 -1.33526C3.06631 -1.38379 3.05614 -1.54048 3.05614 -1.54193C3.05614 -1.54484 3.05467 -1.54756 3.0519 -1.55047C3.04894 -1.5512 3.04617 -1.55193 3.04321 -1.55047C3.02012 -1.5283 2.96062 -1.54338 2.92737 -1.55484C2.91573 -1.55902 2.90427 -1.56338 2.89559 -1.56629C3.03176 -1.74951 3.00866 -1.86711 3.00866 -1.87148C3.00718 -1.87511 3.0057 -1.87638 3.00293 -1.87929C3.00146 -1.87929 2.9985 -1.88075 2.99702 -1.87929C2.89559 -1.84657 2.83184 -1.85439 2.79563 -1.8673C2.76514 -1.87802 2.74926 -1.8922 2.74334 -1.89947C2.81873 -2.06343 2.81725 -2.23174 2.73909 -2.40497C2.5826 -2.74706 2.16947 -2.99536 2.16522 -2.99808C2.16227 -3.00099 2.15931 -3.00026 2.15783 -2.99808C2.15635 -2.9959 2.15635 -2.99317 2.15783 -2.98954C2.46509 -2.45259 2.45493 -2.26519 2.44495 -2.0627C2.44347 -2.02634 2.442 -1.98854 2.442 -1.94873C2.442 -1.80604 2.37973 -1.53957 2.32319 -1.30418C2.2783 -1.1095 2.23469 -0.927005 2.23469 -0.845755C2.23469 -0.747236 2.31303 -0.340254 2.61734 -0.0136151C2.53327 -0.00798011 2.47821 0.0241928 2.47821 0.0825408C2.47821 0.142343 2.53327 0.214505 2.61734 0.279942C2.31303 0.386822 2.23469 0.72982 2.23469 0.828157C2.23469 0.909408 2.27811 1.12626 2.32319 1.35365C2.37973 1.63176 2.442 1.94404 2.442 2.08655C2.442 2.12653 2.44347 2.1658 2.44495 2.2036C2.45511 2.41173 2.46509 2.61204 2.15783 2.91359C2.15635 2.91577 2.15635 2.9185 2.15783 2.92214C2.15931 2.92577 2.16227 2.92795 2.16522 2.92795C2.16947 2.93086 2.5826 2.99357 2.73909 2.75691C2.81725 2.6393 2.81873 2.47099 2.74334 2.25577C2.74907 2.25159 2.76514 2.24868 2.79563 2.25941C2.83184 2.27231 2.89559 2.30867 2.99702 2.40991C2.9985 2.41137 3.00146 2.41409 3.00293 2.41282C3.00293 2.41282 3.00718 2.41137 3.00866 2.40919C3.00866 2.405 3.03176 2.30303 2.89559 2.02692C2.90427 2.03056 2.91591 2.0342 2.92737 2.03838C2.96081 2.04983 3.02012 2.074 3.04321 2.11108C3.04617 2.11545 3.04912 2.11617 3.0519 2.1169C3.05485 2.1169 3.05614 2.11399 3.05614 2.11108C3.05614 2.10963 3.06631 1.96131 2.92423 1.81589C2.9488 1.82734 2.98224 1.84298 3.02141 1.85588C3.15758 1.90223 3.40553 1.93786 3.5271 1.69265C3.60249 1.53869 3.59676 1.36892 3.50974 1.21078C3.43712 1.08173 3.31555 0.978299 3.18511 0.93631C3.14446 0.922677 3.10548 0.915588 3.06631 0.914134C3.05762 0.890686 3.03582 0.811617 3.07795 0.785806C3.07942 0.784352 3.0809 0.780897 3.07795 0.777262C3.07647 0.773627 3.0737 0.7709 3.07074 0.771627C3.06649 0.770173 2.9706 0.755995 2.92718 0.812344C2.90409 0.844335 2.90113 0.892867 2.91998 0.956305C2.89245 0.955578 2.79545 0.959213 2.75184 0.997021C2.75036 0.999202 2.74889 1.0012 2.75036 1.00484C2.75332 1.00974 2.80413 1.11826 2.91998 1.17461C2.91425 1.19806 2.90261 1.2744 2.94178 1.34929C2.96487 1.39201 3.00127 1.42781 3.0519 1.45272C3.0519 1.45272 3.05615 1.45417 3.05762 1.45344C3.0591 1.45272 3.06058 1.44981 3.06058 1.44708C3.0591 1.44563 3.04303 1.30167 3.10252 1.25604C3.12562 1.23823 3.15629 1.23677 3.19527 1.25041C3.27213 1.27967 3.31259 1.37365 3.30982 1.44854C3.30687 1.55414 3.22576 1.63594 3.04894 1.57759C2.74464 1.47562 2.66353 1.14916 2.66353 0.993023C2.66353 0.891777 2.75036 0.549505 3.17365 0.663475C3.18529 0.665656 3.19693 0.669291 3.20987 0.673472C3.39093 0.732729 3.50992 0.85815 3.57662 0.952307C3.68674 1.11063 3.73164 1.29676 3.71722 1.39219C3.68969 1.57468 3.62872 1.73791 3.5332 1.88987C3.43029 2.06746 2.11866 4.29322 2.10407 4.30104C2.10259 4.30595 1.85334 4.84289 2.1316 5.36402C2.2722 5.62632 2.52144 5.8388 2.86935 5.98295C2.52144 5.88879 2.2722 5.91024 2.1316 6.06274C1.85334 6.36575 2.10259 7.09792 2.10554 7.10646C2.11866 7.15354 3.43029 10.2989 3.5332 10.5057C3.62891 10.7153 3.68969 10.9134 3.71722 11.1159C3.73182 11.2184 3.68674 11.3769 3.57662 11.4695C3.50992 11.5251 3.39241 11.578 3.20987 11.518C3.19693 11.5151 3.18529 11.5109 3.17365 11.5065C2.75036 11.3411 2.66353 10.9276 2.66353 10.8278C2.66353 10.6711 2.74464 10.4074 3.04894 10.5085C3.22576 10.5683 3.30687 10.7009 3.30982 10.8093C3.31278 10.8849 3.27065 10.9532 3.19527 10.932C3.1561 10.9218 3.12562 10.8991 3.10252 10.8676C3.04303 10.7806 3.0591 10.6481 3.06058 10.6466C3.06058 10.6437 3.0591 10.6424 3.05762 10.6395C3.05615 10.6381 3.05337 10.6366 3.05337 10.6366C3.00127 10.6281 2.96487 10.6395 2.94178 10.668C2.90261 10.7137 2.91425 10.7993 2.91998 10.8247C2.80413 10.802 2.75332 10.876 2.75036 10.8791C2.74889 10.8791 2.75036 10.8833 2.75184 10.8876C2.79526 10.956 2.89245 11.0245 2.91998 11.0443C2.90113 11.0928 2.90409 11.1443 2.92718 11.1926C2.9706 11.2797 3.06631 11.3266 3.07074 11.3295C3.0737 11.331 3.07647 11.331 3.07795 11.3295C3.0809 11.3266 3.07942 11.3239 3.07795 11.321C3.0373 11.2666 3.0591 11.2026 3.06631 11.1839C3.10548 11.2068 3.14446 11.2268 3.18511 11.2397C3.31555 11.2812 3.43731 11.2553 3.50974 11.1697C3.59676 11.0643 3.60249 10.8989 3.5271 10.6991C3.40387 10.3798 3.15758 10.26 3.02141 10.2129C2.98224 10.2002 2.9488 10.1916 2.92423 10.186C3.06631 10.1387 3.05614 9.98078 3.05614 9.97932C3.05614 9.97641 3.05467 9.97369 3.0519 9.97223C3.04894 9.96987 3.04617 9.9706 3.04321 9.97223C3.02012 9.99495 2.96062 9.97932 2.92737 9.96787C2.91573 9.96369 2.90427 9.9586 2.89559 9.95515C3.03176 9.77192 3.00866 9.65432 3.00866 9.64996C3.00718 9.64632 3.0057 9.64505 3.00293 9.64214C3.00146 9.64214 2.9985 9.64069 2.9985 9.64069C2.89559 9.67632 2.83184 9.6685 2.79563 9.65559C2.76514 9.64487 2.74926 9.62924 2.74334 9.6236C2.81873 9.45964 2.81725 9.29005 2.73909 9.11665C2.5826 8.77583 2.16947 8.52772 2.16522 8.52335C2.16227 8.5219 2.15931 8.52117 2.15783 8.52335C2.15635 8.52553 2.15635 8.52844 2.15783 8.5319C2.46509 9.07011 2.45493 9.2577 2.44495 9.45874C2.44347 9.49509 2.442 9.5329 2.442 9.57271C2.442 9.71521 2.37973 9.98332 2.32319 10.2171C2.2783 10.411 2.23469 10.5935 2.23469 10.6762C2.23469 10.7731 2.31303 11.1823 2.61734 11.5075C2.53327 11.5131 2.47821 11.546 2.47821 11.6029C2.47821 11.6629 2.53327 11.7368 2.61734 11.8026C2.31303 11.9081 2.23469 12.2533 2.23469 12.3501C2.23469 12.4299 2.27811 12.6468 2.32319 12.8765C2.37973 13.153 2.442 13.4653 2.442 13.6078C2.442 13.6478 2.44347 13.6876 2.44495 13.7249C2.45511 13.9332 2.46509 14.1326 2.15783 14.4363C2.15635 14.4378 2.15635 14.4407 2.15783 14.445C2.15931 14.4465 2.16227 14.4492 2.16522 14.4507C2.16947 14.4521 2.5826 14.5148 2.73909 14.2782C2.81725 14.1611 2.81873 13.993 2.74334 13.7761C2.74907 13.7732 2.76514 13.7705 2.79563 13.7803C2.83184 13.793 2.89559 13.8301 2.99702 13.933C2.9985 13.933 3.00146 13.9359 3.00293 13.933C3.00293 13.933 3.00718 13.933 3.00866 13.9315C3.00866 13.9259 3.03176 13.8245 2.89559 13.5493C2.90427 13.5507 2.91591 13.5549 2.92737 13.5593C2.96081 13.5707 3.02012 13.5949 3.04321 13.632C3.04617 13.6362 3.04912 13.6391 3.0519 13.6376C3.05485 13.6376 3.05614 13.6362 3.05614 13.6334C3.05614 13.6307 3.06631 13.4822 2.92423 13.3368C2.9488 13.3495 2.98224 13.3639 3.02141 13.3768C3.15758 13.4224 3.40553 13.4595 3.5271 13.2141C3.60249 13.0601 3.59676 12.8891 3.50974 12.7322C3.43712 12.6024 3.31555 12.4985 3.18511 12.457C3.14446 12.4443 3.10548 12.4383 3.06631 12.4356C3.05762 12.4128 3.03582 12.3331 3.07795 12.3072C3.07942 12.3043 3.0809 12.3031 3.07795 12.2987C3.07647 12.2958 3.0737 12.2931 3.07074 12.2931C3.06649 12.2902 2.9706 12.276 2.92718 12.3345C2.90409 12.3674 2.90113 12.413 2.91998 12.477C2.89245 12.4785 2.79545 12.4799 2.75184 12.5185C2.75036 12.5199 2.74889 12.5214 2.75036 12.5255C2.75332 12.5299 2.80413 12.6411 2.91998 12.6953C2.91425 12.7182 2.90261 12.7953 2.94178 12.8693C2.96487 12.9134 3.00127 12.9491 3.0519 12.9734C3.05337 12.9749 3.05614 12.9749 3.05614 12.9749C3.0591 12.9734 3.06058 12.9707 3.06058 12.9692C3.0591 12.9678 3.04303 12.8222 3.10252 12.7766C3.12562 12.758 3.15629 12.758 3.19527 12.7724C3.27213 12.8009 3.31259 12.8951 3.30982 12.9692C3.30687 13.0747 3.22576 13.1574 3.04894 13.1005C2.74464 12.9978 2.66353 12.6699 2.66353 12.513C2.66353 12.4132 2.75036 12.0709 3.17365 12.1851C3.18529 12.188 3.19693 12.1907 3.20987 12.1936C3.39093 12.2534 3.50992 12.379 3.57662 12.473C3.68674 12.6328 3.73164 12.818 3.71722 12.9122C3.68969 13.0976 3.62872 13.2601 3.5332 13.4113C3.43029 13.5882 2.11866 15.8154 2.10407 15.821C2.10259 15.8281 1.85334 16.3629 2.1316 16.8862C2.2722 17.1472 2.52144 17.3582 2.86935 17.5049C2.52144 17.4095 2.2722 17.4308 2.1316 17.5847C1.85334 17.8885 2.10259 18.6186 2.10554 18.627C2.11866 18.6741 3.43029 21.8194 3.5332 22.0263C3.62891 22.2358 3.68969 22.4341 3.71722 22.6364C3.73182 22.739 3.68674 22.8987 3.57662 22.9914C3.50992 23.0458 3.39241 23.1 3.20987 23.0414C3.19693 23.0356 3.18529 23.0313 3.17365 23.0271C2.75036 22.8617 2.66353 22.4481 2.66353 22.3513C2.66353 22.1929 2.74464 21.9277 3.04894 22.029C3.22576 22.089 3.30687 22.2217 3.30982 22.3313C3.31278 22.4054 3.27065 22.4738 3.19527 22.454C3.19231 22.454 3.18936 22.4525 3.18659 22.451C3.15185 22.4396 3.12284 22.4169 3.10252 22.3882C3.04303 22.3025 3.0591 22.17 3.06058 22.1671C3.06058 22.1657 3.0591 22.1629 3.05762 22.16C3.05615 22.1586 3.05337 22.1571 3.05337 22.1571C3.00127 22.1486 2.96487 22.16 2.94178 22.1886C2.90261 22.2357 2.91425 22.3198 2.91998 22.3469C2.80413 22.3225 2.75332 22.3967 2.75036 22.3996C2.74889 22.4025 2.75036 22.4052 2.75184 22.4081C2.79526 22.4765 2.89245 22.545 2.91998 22.5648C2.90113 22.6163 2.90409 22.6675 2.92718 22.7146C2.9706 22.8002 3.06631 22.85 3.07074 22.8529C3.0737 22.8515 3.07647 22.8515 3.07795 22.85C3.0809 22.8471 3.07942 22.8444 3.07795 22.8415C3.0373 22.7888 3.0591 22.7232 3.06631 22.7046C3.10548 22.7273 3.14446 22.7473 3.18511 22.7615C3.31555 22.8042 3.43731 22.7757 3.50974 22.6901C3.59676 22.5876 3.60249 22.4192 3.5271 22.2195C3.40387 21.9001 3.15758 21.7803 3.02141 21.7332C2.98224 21.7205 2.9488 21.7134 2.92423 21.7076C3.06631 21.6591 3.05614 21.5022 3.05614 21.5008C3.05614 21.4966 3.05467 21.4951 3.0519 21.4922C3.04894 21.4922 3.04617 21.4908 3.04321 21.4922C3.02012 21.5149 2.96062 21.4993 2.92737 21.488C2.91573 21.4839 2.90427 21.4809 2.89559 21.4751C3.03176 21.2926 3.00866 21.1758 3.00866 21.1699C3.00718 21.167 3.00571 21.1643 3.00571 21.1643C3.00146 21.1614 2.99831 21.1614 2.99702 21.1614C2.89559 21.1956 2.83184 21.1885 2.79563 21.1756C2.76514 21.1641 2.74926 21.1499 2.74334 21.1429C2.81873 20.9789 2.81725 20.8106 2.73909 20.6381C2.5826 20.2958 2.16947 20.0477 2.16522 20.0435C2.16227 20.0421 2.15931 20.0435 2.15931 20.0435C2.15635 20.0464 2.15635 20.0493 2.15783 20.0522C2.46509 20.5912 2.45493 20.7779 2.44495 20.9804C2.44347 21.016 2.442 21.0545 2.442 21.0945C2.442 21.237 2.37973 21.5037 2.32319 21.7391C2.2783 21.9343 2.23469 22.1168 2.23469 22.1968C2.23469 22.2936 2.31303 22.703 2.61734 23.028C2.53327 23.0351 2.47821 23.0665 2.47821 23.1263C2.47821 23.1834 2.53327 23.2576 2.61734 23.3232C2.31303 23.4286 2.23469 23.7738 2.23469 23.8707C2.23469 23.9534 2.27811 24.17 2.32319 24.3971C2.37973 24.675 2.442 24.9873 2.442 25.13C2.442 25.1698 2.44347 25.2083 2.44495 25.2468C2.45511 25.4551 2.46509 25.6533 2.15783 25.9585C2.15635 25.9585 2.15635 25.9614 2.15783 25.9656C2.15931 25.9697 2.16227 25.9697 2.16522 25.9712C2.16947 25.9741 2.5826 26.0353 2.73909 25.8001C2.81725 25.6818 2.81873 25.5135 2.74334 25.2966C2.74907 25.2937 2.76514 25.291 2.79563 25.301C2.83184 25.3137 2.89559 25.3508 2.99702 25.4535C2.99702 25.4535 3.00146 25.4564 3.00293 25.4564C3.00293 25.4564 3.00718 25.4535 3.00866 25.4522C3.00866 25.4481 3.03176 25.3452 2.89559 25.07C2.90427 25.0742 2.91591 25.0756 2.92737 25.08C2.96081 25.0914 3.02012 25.1156 3.04321 25.1541C3.04617 25.157 3.04912 25.1598 3.0519 25.1583C3.05485 25.1598 3.05614 25.1569 3.05614 25.1541C3.05614 25.1527 3.06631 25.0031 2.92423 24.8589C2.9488 24.8704 2.98224 24.8848 3.02141 24.8975C3.15758 24.9431 3.40553 24.9802 3.5271 24.7348C3.60249 24.5808 3.59676 24.4127 3.50974 24.2529C3.43712 24.1231 3.31555 24.0219 3.18511 23.9792C3.14446 23.965 3.10548 23.9594 3.06631 23.9594C3.05762 23.9336 3.03582 23.8538 3.07795 23.8281C3.07942 23.8252 3.0809 23.8239 3.07795 23.8194C3.07647 23.8165 3.0737 23.8138 3.07074 23.8138C3.06649 23.8138 2.9706 23.7967 2.92718 23.8552C2.90409 23.8881 2.90113 23.9365 2.91998 23.9994C2.89245 23.9994 2.79545 24.0008 2.75184 24.0392C2.75036 24.0421 2.74889 24.0448 2.75036 24.0479C2.75332 24.0508 2.80413 24.1619 2.91998 24.2175C2.91425 24.2418 2.90261 24.3175 2.94178 24.39C2.96487 24.4358 3.00127 24.4698 3.0519 24.4956C3.0519 24.4956 3.05615 24.497 3.05762 24.4956C3.0591 24.4956 3.06058 24.4927 3.06058 24.49C3.06058 24.49 3.04303 24.3445 3.10252 24.2973C3.12284 24.2816 3.15185 24.2787 3.18659 24.2902C3.18954 24.2916 3.19231 24.2931 3.19527 24.2931C3.27213 24.3216 3.31259 24.4185 3.30982 24.49C3.30687 24.5954 3.22576 24.681 3.04894 24.6212C2.74464 24.5199 2.66353 24.192 2.66353 24.0364C2.66353 23.9339 2.75036 23.5916 3.17365 23.7058C3.18529 23.7087 3.19693 23.7114 3.20987 23.7172C3.39093 23.7756 3.50992 23.8997 3.57662 23.9952C3.68674 24.1535 3.73164 24.3389 3.71722 24.4331C3.68969 24.6185 3.62872 24.781 3.5332 24.932C3.50863 24.9691 3.41735 25.1245 3.25495 25.4053C3.25495 25.4053 3.25199 25.4053 3.25347 25.4082C3.22742 25.4681 3.20285 25.528 3.17661 25.5878C3.17661 25.5907 3.104 25.8247 3.23167 26.0326C3.3041 26.151 3.42733 26.238 3.59547 26.2893C3.59694 26.2893 3.59842 26.2893 3.59972 26.2907C3.63888 26.3035 3.84323 26.3564 3.99972 26.2651C4.1577 26.4432 4.36204 26.5032 4.40121 26.5145H4.40546C4.5736 26.5572 4.69683 26.5389 4.76926 26.4603C4.89674 26.3235 4.82432 26.0512 4.82284 26.047C4.79679 25.9714 4.77222 25.8958 4.74598 25.8201C4.5821 25.4481 4.49082 25.2427 4.46773 25.1914C4.37073 24.9875 4.30976 24.7908 4.2837 24.591C4.26911 24.4885 4.31271 24.3273 4.42431 24.2304C4.48953 24.1735 4.60704 24.1133 4.79106 24.1562C4.8027 24.1591 4.81416 24.1619 4.82727 24.1677C5.2489 24.2889 5.33592 24.681 5.33592 24.781C5.33592 24.9376 5.25481 25.2201 4.95051 25.1516C4.77517 25.1116 4.69258 24.9818 4.68963 24.8751C4.68815 24.801 4.72732 24.7281 4.80547 24.7426C4.84464 24.7497 4.87513 24.7682 4.89674 24.7982C4.95624 24.878 4.94016 25.0122 4.94016 25.0122C4.94016 25.0178 4.94016 25.0207 4.94164 25.0207C4.9446 25.0236 4.94608 25.0236 4.94903 25.0249C4.99966 25.0264 5.03606 25.0122 5.05915 24.9807C5.09832 24.9295 5.0852 24.8468 5.07947 24.821C5.1968 24.8297 5.24761 24.747 5.2489 24.7455C5.25038 24.7426 5.25038 24.7397 5.2489 24.7368C5.20548 24.6726 5.10682 24.6157 5.08077 24.6014C5.09961 24.5501 5.09666 24.4989 5.07208 24.4532C5.02867 24.3705 4.93296 24.3334 4.92871 24.3305C4.92575 24.3305 4.92298 24.332 4.9215 24.3334C4.92002 24.3364 4.92003 24.3391 4.92298 24.3434C4.96363 24.3932 4.94183 24.459 4.93314 24.4789C4.89545 24.459 4.85499 24.4434 4.81582 24.4334C4.68538 24.4034 4.56362 24.4376 4.48971 24.5276C4.40269 24.6359 4.39696 24.804 4.47382 24.9994C4.59706 25.3146 4.84335 25.4144 4.97952 25.4444C5.01869 25.453 5.05213 25.4571 5.07522 25.4601C4.93314 25.5228 4.94478 25.6796 4.9433 25.6811C4.9433 25.684 4.94626 25.6882 4.94903 25.6882C4.95199 25.6911 4.95476 25.6896 4.95624 25.6882C4.97933 25.6625 5.03883 25.6711 5.07208 25.6796C5.08372 25.6825 5.09684 25.6853 5.10405 25.6867C4.96788 25.8865 4.99097 26.0019 4.99245 26.0063C4.99245 26.0092 4.99393 26.0104 4.9967 26.0134H5.00409C5.10553 25.9677 5.16927 25.9663 5.20548 25.9734C5.23449 25.9805 5.25038 25.9932 5.25777 25.9992C5.18239 26.1731 5.18387 26.3442 5.26202 26.5052C5.41851 26.8275 5.83164 27 5.8346 26.9985C5.8346 26.9985 5.83608 27 5.83755 27C5.83755 27 5.8418 27 5.84347 26.9971C5.84494 26.9942 5.84494 26.9915 5.84347 26.9915C5.53621 26.5123 5.54489 26.3185 5.55487 26.1161C5.55635 26.079 5.55912 26.0419 5.55912 26.0021C5.55912 25.8594 5.62157 25.5827 5.67663 25.3361C5.723 25.1338 5.76642 24.9411 5.76642 24.8613C5.76642 24.7615 5.68808 24.3736 5.38378 24.0971C5.46784 24.0772 5.52143 24.0357 5.52143 23.9774C5.52143 23.9176 5.46766 23.8547 5.38378 23.8005C5.68808 23.6464 5.76642 23.2828 5.76642 23.1874C5.76642 23.1047 5.723 22.8978 5.67663 22.6783C5.62157 22.4116 5.55912 22.1093 5.55912 21.9668C5.55912 21.9268 5.55616 21.887 5.55487 21.8498C5.54471 21.6414 5.53602 21.4491 5.84347 21.0854C5.84494 21.0825 5.84494 21.0798 5.84347 21.0769C5.84199 21.074 5.83903 21.0727 5.83478 21.0712C5.83183 21.0741 5.41888 21.0883 5.2622 21.3435C5.18405 21.4704 5.18257 21.6402 5.25796 21.8456C5.25056 21.8485 5.23615 21.8556 5.20567 21.8498C5.16945 21.8412 5.10571 21.8127 5.00428 21.7214C5.00132 21.72 4.99836 21.7185 4.99689 21.7214C4.99393 21.72 4.99264 21.7229 4.99264 21.7243C4.99116 21.73 4.96806 21.8329 5.10423 22.0922C5.09703 22.0922 5.08539 22.0893 5.07227 22.0866C5.03901 22.0793 4.97952 22.0622 4.95642 22.0266C4.95495 22.0237 4.95217 22.021 4.94922 22.0224C4.94626 22.0239 4.94349 22.0239 4.94349 22.0281C4.94349 22.0295 4.93333 22.1808 5.07541 22.3091C5.05231 22.3004 5.01887 22.2891 4.9797 22.2805C4.84353 22.2491 4.59706 22.2349 4.47401 22.4845C4.39715 22.6397 4.40288 22.8109 4.4899 22.9636C4.5638 23.0903 4.68408 23.1861 4.816 23.2161C4.85517 23.2261 4.89564 23.2276 4.93333 23.2247C4.94201 23.2488 4.96381 23.3244 4.92317 23.3572C4.92021 23.3586 4.92021 23.3613 4.92169 23.3643C4.92317 23.3672 4.92594 23.3699 4.92889 23.3699C4.93314 23.3699 5.02885 23.3755 5.07227 23.313C5.09703 23.2788 5.0998 23.2303 5.08095 23.1674C5.107 23.1645 5.20548 23.1503 5.24909 23.1047C5.25056 23.1032 5.25056 23.1005 5.24909 23.0976C5.24761 23.0934 5.19698 22.9905 5.07966 22.9505C5.08539 22.9249 5.09851 22.848 5.05934 22.778C5.03624 22.7366 4.99984 22.7068 4.94922 22.6868C4.94626 22.6853 4.94497 22.6853 4.94183 22.6868C4.94035 22.6883 4.94035 22.691 4.94035 22.691C4.94035 22.6939 4.95772 22.8366 4.89693 22.8878C4.87679 22.9077 4.84908 22.9135 4.81434 22.9049C4.81138 22.9049 4.80843 22.9049 4.80566 22.9035C4.7275 22.8793 4.68833 22.788 4.68981 22.7168C4.69277 22.6085 4.77536 22.5199 4.9507 22.5599C5.255 22.6285 5.33611 22.9393 5.33611 23.0961C5.33611 23.1959 5.24909 23.5595 4.82746 23.4897C4.81434 23.4868 4.8027 23.484 4.79125 23.4811C4.60722 23.4384 4.48971 23.3184 4.42449 23.2274C4.3129 23.0732 4.26948 22.8895 4.28389 22.7939C4.31142 22.6085 4.37091 22.443 4.46791 22.2876C4.57082 22.1351 5.88245 19.7252 5.89557 19.6882C5.89853 19.6811 6.14629 19.0921 5.86804 18.6303C5.72707 18.3956 5.4793 18.2345 5.1301 18.1346ZM3.99954 24.8606C4.0315 24.9476 4.13294 25.2285 4.30107 25.602C4.43151 25.8872 4.47493 26.1012 4.41987 26.1753C4.40251 26.198 4.37775 26.2051 4.34597 26.198C4.34172 26.1951 4.33581 26.1951 4.33137 26.1924C4.21405 26.1497 4.05164 25.9899 4.00379 25.9428C4.00231 25.9414 4.00083 25.9414 3.99954 25.9399H3.99529C3.94892 25.9614 3.78503 26.0297 3.66771 26.007C3.63002 26.0014 3.59953 25.9785 3.58068 25.9426C3.52692 25.8372 3.56904 25.6476 3.69801 25.4335C3.86762 25.1543 3.96905 24.9306 3.99954 24.8606ZM3.99954 24.0008C3.9661 23.9223 3.79519 23.6086 3.28654 23.4033C3.79519 23.5159 3.96628 23.2863 3.99954 23.2308C4.03428 23.305 4.20389 23.63 4.71402 23.7998C4.20389 23.7227 4.03428 23.9423 3.99954 24.0008ZM3.99954 -0.672891C3.96905 -0.759959 3.86762 -1.03861 3.69801 -1.41924C3.56904 -1.70861 3.52544 -1.92619 3.58068 -1.99744C3.59657 -2.01962 3.62281 -2.02525 3.65459 -2.01526C3.65884 -2.0138 3.66327 -2.01307 3.66771 -2.01162C3.78503 -1.96236 3.94892 -1.80277 3.99529 -1.75642C3.99825 -1.75278 4.00102 -1.75133 4.00397 -1.75351C4.05183 -1.77423 4.21423 -1.84258 4.33156 -1.82694C4.37073 -1.82058 4.39973 -1.80059 4.42006 -1.76423C4.47512 -1.66153 4.4317 -1.46849 4.30126 -1.25164C4.13294 -0.964449 4.0315 -0.742691 3.99954 -0.672891ZM3.99954 0.187057C4.03428 0.262673 4.20389 0.587677 4.71402 0.756722C4.20389 0.678925 4.03428 0.898683 3.99954 0.957031C3.9661 0.879234 3.79519 0.564956 3.28654 0.359557C3.79519 0.473526 3.9661 0.243224 3.99954 0.187057ZM4.52279 5.69666C4.52279 5.69666 4.50967 5.5876 4.57212 5.53343C4.60981 5.50126 4.66635 5.49344 4.74025 5.51126C4.82284 5.53125 4.88233 5.57615 4.91559 5.64449C4.96344 5.74719 4.94016 5.87407 4.90247 5.92115C4.90099 5.92405 4.90099 5.92678 4.90247 5.92969C4.90543 5.93332 4.9082 5.93387 4.91116 5.9346C4.91411 5.9346 5.19661 5.88261 5.17925 5.62868C5.21546 5.63086 5.38507 5.63231 5.45029 5.51962C5.45177 5.51671 5.45177 5.51398 5.45029 5.51107C5.44456 5.50399 5.33426 5.33858 5.17481 5.30713C5.1822 5.27714 5.20086 5.18316 5.14876 5.08046C5.10663 4.99994 5.03144 4.93359 4.92261 4.88506C4.92261 4.88506 4.91688 4.88361 4.91541 4.88579C4.91393 4.88724 4.91541 4.88997 4.91393 4.89288C4.91541 4.89433 4.9821 5.06974 4.91984 5.15535C4.88935 5.19371 4.83577 5.20879 4.75891 5.19443C4.75891 5.19443 4.74154 5.18952 4.71402 5.18244C4.60833 5.15826 4.36038 5.11118 4.26338 5.22297C4.25322 4.93505 4.24158 4.64767 4.23142 4.35957C4.23142 4.35957 4.21978 4.29468 4.26338 4.24905C4.31271 4.20343 4.39955 4.1927 4.5287 4.21761C4.5287 4.21761 4.53886 4.21833 4.55771 4.22324C4.60852 4.23615 4.70995 4.26741 4.81434 4.33885C4.8173 4.34103 4.82007 4.34175 4.82155 4.33957C4.8245 4.33885 4.8258 4.33594 4.8245 4.33466C4.8245 4.32903 4.75355 3.88406 4.25784 3.75573C4.23031 3.74864 4.20278 3.74282 4.17377 3.73646C4.2316 3.71647 4.34763 3.65376 4.34763 3.47544C4.34763 3.47053 4.35484 3.14899 4.00416 2.776C4.00268 2.77236 3.99843 2.77181 3.99548 2.77309C3.6448 2.95068 3.652 3.27713 3.652 3.28059C3.652 3.46036 3.76803 3.58723 3.82734 3.63994C3.79833 3.62995 3.76951 3.61995 3.74328 3.61213C3.24756 3.46454 3.17661 3.86952 3.17513 3.87443C3.17513 3.87588 3.17661 3.87952 3.17809 3.8817C3.17957 3.88533 3.18234 3.88533 3.18529 3.88533C3.29116 3.87243 3.3926 3.89751 3.44322 3.91314C3.46059 3.91805 3.47223 3.92314 3.47223 3.92314C3.59972 3.96949 3.68969 4.03002 3.73607 4.102C3.78097 4.17253 3.76951 4.23033 3.76951 4.23033C3.75935 4.51262 3.74771 4.79436 3.73755 5.07665C3.64055 4.91051 3.39112 4.81853 3.28691 4.78509C3.25791 4.77582 3.24054 4.77164 3.24054 4.77164C3.16368 4.74237 3.1101 4.69748 3.08109 4.64258C3.01882 4.52207 3.08534 4.38447 3.08534 4.38302C3.08682 4.38084 3.08682 4.37811 3.08386 4.3752C3.08238 4.37229 3.07961 4.37084 3.07665 4.37011C2.96931 4.35866 2.89263 4.38229 2.85198 4.43918C2.7984 4.51189 2.81725 4.6175 2.82593 4.65167C2.82445 4.65094 2.82298 4.65022 2.82002 4.64949C2.66353 4.59532 2.5547 4.69657 2.55045 4.70075C2.54897 4.70293 2.54897 4.70584 2.54897 4.70856C2.61567 4.85907 2.78381 4.95232 2.8215 4.97086C2.80413 5.21461 3.08682 5.42437 3.08977 5.42637C3.09273 5.4271 3.0955 5.42855 3.09698 5.42564C3.10123 5.42419 3.09993 5.42146 3.09846 5.41783C3.05929 5.3493 3.03619 5.20897 3.08534 5.1339C3.11878 5.08337 3.17679 5.07119 3.26068 5.09828C3.33458 5.12173 3.39112 5.16099 3.42733 5.2137C3.4896 5.30277 3.47666 5.40274 3.47666 5.40274C3.41883 5.7421 3.11287 5.68357 2.98538 5.6394C2.94196 5.62504 2.91443 5.61087 2.91443 5.61087C2.69697 5.50689 2.54768 5.36711 2.4723 5.20098C2.32597 4.88579 2.49262 4.57987 2.49539 4.57787C2.99684 3.71229 3.49828 2.82471 3.99991 1.91568C4.50135 3.10427 5.00446 4.27123 5.50572 5.41855C5.5072 5.42219 5.67385 5.82208 5.52882 6.05511C5.45196 6.17762 5.30415 6.2347 5.08668 6.21688C5.0852 6.21688 5.05767 6.2147 5.01573 6.20543C4.88658 6.17853 4.5821 6.06747 4.52279 5.69666ZM3.99954 5.71084C4.21701 6.25342 4.63438 6.47518 4.86774 6.55352C4.63438 6.52771 4.21701 6.53716 3.99954 6.95559C3.78208 6.41592 3.36618 6.1749 3.13282 6.0702C3.36618 6.12236 3.78208 6.13218 3.99954 5.71084ZM3.47629 6.95505C3.47629 6.95505 3.48941 7.06484 3.42696 7.1141C3.39075 7.14409 3.33421 7.14754 3.26031 7.12409C3.17624 7.09701 3.11823 7.0463 3.08497 6.97432C3.03711 6.86816 3.05892 6.74329 3.09809 6.70057C3.09956 6.69839 3.09956 6.69566 3.09661 6.6913C3.09513 6.68839 3.09236 6.68712 3.0894 6.68639C3.08645 6.68785 2.80394 6.70566 2.82113 6.95941C2.78344 6.95378 2.6153 6.92742 2.5486 7.02939C2.5486 7.03085 2.5486 7.03503 2.55008 7.03721C2.55433 7.0443 2.66316 7.22552 2.81965 7.27951C2.82261 7.28023 2.82408 7.28096 2.82556 7.28169C2.81688 7.31023 2.79803 7.40293 2.85161 7.51126C2.89226 7.59833 2.96894 7.67304 3.07628 7.73302C3.07924 7.7352 3.08201 7.7352 3.08349 7.73375C3.08645 7.73229 3.08645 7.72957 3.08497 7.72593C3.08497 7.72593 3.01845 7.54271 3.08072 7.46491C3.10973 7.4271 3.16331 7.41929 3.24017 7.43837C3.24017 7.43837 3.25754 7.44564 3.28654 7.45473C3.39075 7.48836 3.64018 7.54889 3.73718 7.43837C3.74734 7.72648 3.75898 8.01513 3.76914 8.30323C3.76914 8.30323 3.78078 8.36812 3.7357 8.41156C3.68932 8.45792 3.60101 8.465 3.47186 8.43229C3.47186 8.43229 3.46022 8.4301 3.44285 8.4252C3.39204 8.40956 3.29061 8.3703 3.18492 8.28905C3.18197 8.2876 3.18067 8.2876 3.17772 8.28833C3.17624 8.28905 3.17476 8.29123 3.17476 8.29396C3.17624 8.29759 3.24737 8.75947 3.74291 8.90707C3.76914 8.91488 3.79796 8.92215 3.82697 8.92779C3.76766 8.94633 3.65163 9.00631 3.65163 9.18445C3.65163 9.18445 3.64443 9.51454 3.99511 9.89025C3.99806 9.89316 4.00231 9.89389 4.00379 9.89316C4.35447 9.71267 4.34726 9.37985 4.34726 9.37767C4.34726 9.19953 4.23123 9.07538 4.1734 9.02413C4.20241 9.03485 4.22994 9.04321 4.25747 9.05048C4.75318 9.17881 4.82413 8.75674 4.82413 8.75383C4.82561 8.75093 4.82413 8.7482 4.82118 8.74602C4.8197 8.74384 4.81693 8.74311 4.81397 8.74238C4.70958 8.76529 4.60815 8.74747 4.55734 8.7353C4.53849 8.73039 4.52833 8.72675 4.52833 8.72675C4.39937 8.68749 4.31086 8.63132 4.26449 8.55916C4.21959 8.49009 4.23105 8.43374 4.23105 8.43083C4.24121 8.14854 4.25285 7.8668 4.26301 7.58451C4.36001 7.7492 4.60796 7.82754 4.71365 7.8519C4.74117 7.85899 4.75854 7.86117 4.75854 7.86117C4.8354 7.88534 4.88898 7.92315 4.91947 7.97732C4.98174 8.09002 4.91522 8.23398 4.91356 8.23543C4.91356 8.23834 4.91356 8.24125 4.91504 8.24397C4.91651 8.24615 4.91929 8.24815 4.91929 8.24815C5.03088 8.24743 5.10627 8.21525 5.14821 8.152C5.20031 8.07347 5.18294 7.9695 5.17426 7.9366C5.17574 7.9366 5.17721 7.93733 5.17851 7.93733C5.335 7.97077 5.4453 7.85172 5.44955 7.84663C5.45103 7.84517 5.45103 7.84099 5.44955 7.83954C5.38433 7.69976 5.21472 7.63141 5.17851 7.61632C5.19587 7.37257 4.9119 7.19644 4.91042 7.19353C4.90746 7.1928 4.90469 7.19207 4.90173 7.19426C4.90026 7.19716 4.90026 7.20007 4.90173 7.2028C4.93942 7.26696 4.9627 7.40529 4.91485 7.48363C4.88141 7.5378 4.8221 7.55561 4.73951 7.53562C4.66561 7.51781 4.60907 7.48272 4.57138 7.43219C4.50764 7.34803 4.52205 7.24624 4.52205 7.24624C4.58136 6.90688 4.88584 6.94105 5.01481 6.96886C5.05693 6.97813 5.08428 6.98886 5.08576 6.98886C5.30322 7.06666 5.45103 7.18062 5.52789 7.33458C5.67422 7.62323 5.50609 7.95769 5.5048 7.95969C5.00335 8.90943 4.50043 9.839 3.99899 10.7478C3.49754 9.56016 2.99591 8.35176 2.49447 7.12046C2.49151 7.11555 2.32486 6.68767 2.47137 6.48027C2.54676 6.36975 2.69604 6.33849 2.91351 6.38266C2.91351 6.38266 2.94104 6.38829 2.98446 6.40265C3.1125 6.44737 3.41828 6.58278 3.47629 6.95505ZM3.99954 11.7079C4.03428 11.7836 4.20389 12.1087 4.71402 12.2785C4.20389 12.2 4.03428 12.421 3.99954 12.4781C3.9661 12.401 3.79519 12.086 3.28654 11.8806C3.79519 11.9948 3.9661 11.7652 3.99954 11.7079ZM4.52279 17.2177C4.52279 17.2163 4.50967 17.1094 4.57212 17.0552C4.60981 17.0223 4.66635 17.0152 4.74025 17.0323C4.82284 17.0523 4.88233 17.0979 4.91559 17.1663C4.96344 17.269 4.94016 17.3946 4.90247 17.4429C4.90099 17.4459 4.90099 17.4486 4.90247 17.4515C4.90543 17.4544 4.9082 17.4544 4.91116 17.4544C4.91411 17.4559 5.19661 17.4031 5.17925 17.1492C5.21546 17.1521 5.38507 17.1534 5.45029 17.0407C5.45177 17.0378 5.45177 17.0351 5.45029 17.0336C5.44604 17.0265 5.33574 16.8626 5.17925 16.8297C5.17777 16.8297 5.17629 16.8297 5.175 16.8297C5.18239 16.7998 5.20105 16.7044 5.14895 16.6015C5.10682 16.5217 5.03162 16.4561 4.9228 16.4063C4.9228 16.4063 4.91707 16.4063 4.91559 16.4078C4.91411 16.4107 4.91559 16.4134 4.91411 16.4134C4.91559 16.4163 4.98229 16.593 4.92002 16.6757C4.88954 16.7157 4.83596 16.7299 4.7591 16.7157C4.7591 16.7157 4.74173 16.7128 4.7142 16.7042C4.60852 16.6813 4.36057 16.6328 4.26357 16.744C4.2534 16.4561 4.24176 16.168 4.2316 15.8801C4.2316 15.8801 4.21996 15.8172 4.26357 15.7716C4.3129 15.7245 4.39973 15.7147 4.52888 15.7387C4.52888 15.7387 4.53905 15.7401 4.55789 15.7459C4.6087 15.7587 4.71013 15.7899 4.81453 15.8599C4.81748 15.8628 4.82025 15.8628 4.82173 15.8628C4.82469 15.8614 4.82598 15.8586 4.82469 15.8557C4.82469 15.8501 4.75374 15.4051 4.25802 15.2768C4.23049 15.2695 4.20296 15.2639 4.17396 15.2581C4.23179 15.2383 4.34782 15.1754 4.34782 14.9958C4.34782 14.9929 4.35502 14.6708 4.00434 14.2971C4.00287 14.2942 3.99862 14.2929 3.99566 14.2942C3.64498 14.471 3.65219 14.7989 3.65219 14.8033C3.65219 14.9814 3.76822 15.1085 3.82753 15.1627C3.79852 15.1512 3.7697 15.1414 3.74346 15.1327C3.24774 14.9858 3.17679 15.3908 3.17532 15.3951C3.17532 15.398 3.17679 15.4022 3.17827 15.4037C3.17975 15.4066 3.18252 15.4066 3.18548 15.4066C3.29135 15.3951 3.39278 15.4208 3.44341 15.4349C3.46077 15.4406 3.47241 15.4435 3.47241 15.4435C3.5999 15.4907 3.68988 15.552 3.73625 15.6247C3.78115 15.6945 3.7697 15.7516 3.7697 15.753C3.75953 16.0339 3.74789 16.3163 3.73773 16.5984C3.64073 16.4316 3.3913 16.3418 3.2871 16.3074C3.25809 16.2989 3.24072 16.2933 3.24072 16.2933C3.16386 16.2633 3.11028 16.2191 3.08127 16.1635C3.01901 16.0451 3.08552 15.9054 3.08552 15.9039C3.087 15.9025 3.087 15.8997 3.08404 15.8968C3.08257 15.8939 3.07979 15.8912 3.07684 15.8912C2.96949 15.8812 2.89282 15.9026 2.85217 15.9595C2.79859 16.0337 2.81743 16.1393 2.82612 16.1735C2.82464 16.1735 2.82316 16.1706 2.8202 16.1706C2.66371 16.1164 2.55489 16.2176 2.55064 16.2233C2.55064 16.2233 2.54916 16.2276 2.54916 16.2305C2.61586 16.3801 2.78399 16.4728 2.82168 16.4928C2.80431 16.7351 3.087 16.9462 3.08996 16.9462C3.09291 16.9491 3.09568 16.9491 3.09716 16.9462C3.10141 16.9462 3.10012 16.9433 3.09864 16.9391C3.05947 16.8706 3.03638 16.7295 3.08552 16.6552C3.11896 16.6039 3.17698 16.5924 3.26086 16.6197C3.33477 16.6439 3.3913 16.6824 3.42752 16.7351C3.48978 16.8235 3.47685 16.9234 3.47685 16.9264C3.41902 17.2628 3.11305 17.2057 2.98557 17.1601C2.94215 17.1459 2.91462 17.1316 2.91462 17.1316C2.69715 17.0261 2.54786 16.8893 2.47248 16.7224C2.32615 16.4074 2.49281 16.1022 2.49558 16.0993C2.99702 15.2352 3.49847 14.3467 4.00009 13.4384C4.50154 14.6262 5.00465 15.7927 5.50591 16.9405C5.50738 16.9447 5.67404 17.3426 5.529 17.5765C5.45214 17.6991 5.30433 17.7547 5.08686 17.739C5.08539 17.739 5.05786 17.7361 5.01592 17.7276C4.88658 17.6996 4.5821 17.5885 4.52279 17.2177ZM3.99954 17.2321C4.21701 17.7738 4.63438 17.9962 4.86626 18.0762C4.63438 18.0491 4.21701 18.0591 3.99954 18.4754C3.78208 17.9364 3.36618 17.6969 3.13282 17.5929C3.36618 17.6427 3.78208 17.654 3.99954 17.2321ZM3.47629 18.4754C3.47629 18.4754 3.48941 18.5866 3.42696 18.6366C3.39075 18.6666 3.33421 18.6695 3.26031 18.6466C3.17624 18.6197 3.11823 18.5695 3.08497 18.497C3.03711 18.39 3.05892 18.2647 3.09809 18.2216C3.09956 18.2187 3.09956 18.216 3.09661 18.2131C3.09513 18.2102 3.09236 18.2075 3.0894 18.2075C3.08645 18.2089 2.80394 18.2275 2.82113 18.4812C2.78344 18.4756 2.6153 18.4499 2.5486 18.5497C2.5486 18.5526 2.5486 18.5554 2.55008 18.5597C2.55433 18.5668 2.66316 18.7466 2.81965 18.8008C2.82261 18.8008 2.82408 18.8022 2.82556 18.8037C2.81688 18.832 2.79803 18.9249 2.85161 19.0347C2.89226 19.1203 2.96894 19.1959 3.07628 19.2557C3.07924 19.2572 3.08201 19.2572 3.08349 19.2543C3.08645 19.2543 3.08645 19.2514 3.08497 19.2486C3.08497 19.2472 3.01845 19.0632 3.08072 18.9863C3.10973 18.9493 3.16331 18.9407 3.24017 18.9607C3.24017 18.9607 3.25754 18.9664 3.28654 18.9763C3.39075 19.0092 3.64018 19.0718 3.73718 18.9607C3.74734 19.2486 3.75898 19.5382 3.76914 19.8261C3.76914 19.8261 3.78078 19.8905 3.7357 19.9332C3.68932 19.9788 3.60101 19.9873 3.47186 19.9559C3.47186 19.9559 3.46022 19.953 3.44285 19.9474C3.39204 19.9332 3.29061 19.8917 3.18492 19.8119C3.18197 19.809 3.18067 19.809 3.17772 19.8105C3.17624 19.8105 3.17476 19.8134 3.17476 19.8161C3.17624 19.819 3.24737 20.2811 3.74291 20.4292C3.76914 20.4365 3.79796 20.4436 3.82697 20.4492C3.76766 20.469 3.65163 20.5277 3.65163 20.7059C3.65163 20.7088 3.64443 21.0365 3.99511 21.4117C3.99806 21.4159 4.00231 21.4159 4.00379 21.4146C4.35447 21.2336 4.34726 20.9027 4.34726 20.8998C4.34726 20.7202 4.23123 20.5975 4.1734 20.5463C4.20241 20.5563 4.22994 20.5648 4.25747 20.5721C4.75318 20.7004 4.82413 20.2784 4.82413 20.2755C4.82561 20.2725 4.82413 20.2698 4.82118 20.2669C4.8197 20.2655 4.81693 20.264 4.81397 20.2655C4.70958 20.2867 4.60815 20.2711 4.55734 20.2582C4.53849 20.2525 4.52833 20.2496 4.52833 20.2496C4.39937 20.2097 4.31086 20.1528 4.26449 20.0813C4.21959 20.013 4.23105 19.9559 4.23105 19.953C4.24121 19.6707 4.25285 19.3897 4.26301 19.1076C4.36001 19.2715 4.60796 19.3484 4.71365 19.3742C4.74117 19.3799 4.75854 19.3842 4.75854 19.3842C4.8354 19.4071 4.88898 19.4457 4.91947 19.4998C4.98174 19.6109 4.91522 19.7565 4.91356 19.7594C4.91356 19.7594 4.91356 19.765 4.91504 19.765C4.91651 19.768 4.91929 19.7707 4.91929 19.7707C5.03088 19.7707 5.10627 19.7365 5.14821 19.6752C5.20031 19.5955 5.18294 19.4913 5.17426 19.4586C5.17574 19.4586 5.17721 19.46 5.17851 19.46C5.335 19.4929 5.4453 19.3744 5.44955 19.3702C5.45103 19.3673 5.45103 19.3646 5.44955 19.3617C5.38433 19.2234 5.21472 19.1534 5.17851 19.1407C5.19587 18.8953 4.9119 18.7186 4.91042 18.7157C4.90746 18.7157 4.90469 18.7142 4.90173 18.7157C4.90026 18.7186 4.90026 18.7213 4.90173 18.7242C4.93942 18.7899 4.9627 18.9267 4.91485 19.0065C4.88141 19.0609 4.8221 19.0792 4.73951 19.0594C4.66561 19.0407 4.60907 19.0065 4.57138 18.9553C4.50764 18.8696 4.52205 18.7699 4.52205 18.7699C4.58136 18.429 4.88584 18.4632 5.01481 18.4905C5.05693 18.5005 5.08428 18.5103 5.08576 18.5103C5.30322 18.5888 5.45103 18.7042 5.52789 18.8567C5.67422 19.1463 5.50609 19.4815 5.5048 19.4828C5.00335 20.4323 4.50043 21.3621 3.99899 22.2704C3.49754 21.0825 2.99591 19.8732 2.49447 18.6428C2.49151 18.6386 2.32486 18.2093 2.47137 18.0028C2.54676 17.8916 2.69604 17.8601 2.91351 17.9057C2.91351 17.9057 2.94104 17.9114 2.98446 17.9257C3.1125 17.9679 3.41828 18.1048 3.47629 18.4754Z" fill="#FFC130"/>
<path d="M14.1746 16.3577C14.6428 16.6873 14.7021 16.9541 14.7021 16.9541C14.7021 16.9541 15.5392 17.1544 15.959 17.2014C16.1386 17.2224 16.3216 17.2664 16.4905 17.3296C16.6474 17.225 16.7849 17.1337 16.9068 17.0644C16.8472 17.0117 16.7824 16.978 16.702 16.9661C16.4502 16.9515 12.0912 16.3941 12.6023 12.2952C12.6023 12.2952 12.2178 11.8397 12.016 13.284C12.016 13.284 11.8585 12.8163 11.9949 11.932C11.9949 11.932 11.8812 11.3857 11.6272 11.9504C11.3721 12.5176 11.6151 13.6483 11.6158 13.6464C11.6155 13.6474 11.2688 13.3454 11.1359 12.6349C11.1359 12.6349 11.0418 12.3632 10.803 12.4326C10.5632 12.5016 10.6923 12.819 10.6923 12.819C10.6912 12.8218 11.0898 14.0976 11.2883 14.2385C11.2883 14.2385 10.8142 13.909 10.5611 13.3689C10.5611 13.3689 10.4873 13.1267 10.2423 13.2389C10.2423 13.2389 10.0752 13.2853 10.3978 13.8107C10.7211 14.335 11.1233 14.8173 11.1237 14.8164C11.1237 14.8164 11.0552 14.9724 10.5512 14.5325C10.0487 14.0887 10.4228 14.8497 10.4228 14.8497C10.4228 14.8497 10.8292 15.3605 11.2472 15.6438C11.2472 15.6438 11.1651 15.6994 10.8221 15.6191C10.4801 15.5392 11.0575 15.9098 11.0582 15.908C11.0578 15.909 11.5407 16.1355 11.6044 16.1416C11.6044 16.1416 11.3617 16.203 11.014 16.1376C11.0148 16.1355 11.0025 16.3106 11.8652 16.5118C11.8652 16.5118 11.5205 16.5435 11.3727 16.5353C11.2236 16.5267 11.2921 16.6141 11.4219 16.6414C11.5532 16.6679 12.0924 16.7573 12.222 16.8936C12.222 16.8936 11.8193 17.04 11.7219 17.0172C11.7219 17.0172 12.406 17.7621 13.6772 17.7238C13.6768 17.7248 12.8061 17.5623 12.3988 17.0239C12.4465 16.9503 12.4954 16.8774 12.5432 16.8038C12.5432 16.8038 12.2688 16.8286 12.1861 16.6632C12.2402 16.6279 12.2954 16.5929 12.3493 16.5577C12.3493 16.5577 11.9701 16.4042 11.9922 16.2936C11.9922 16.2936 12.1854 16.2472 11.9945 16.1285C11.8026 16.0095 11.6641 15.9171 11.6641 15.9171C11.7332 15.9065 11.8035 15.8963 11.8726 15.8857C11.6724 15.7094 11.4721 15.5308 11.2739 15.3496C11.3802 15.3438 11.4864 15.338 11.5935 15.3303C11.5927 15.3322 11.2348 15.0046 11.3976 14.7799C11.3976 14.7799 11.5718 14.7816 11.7566 14.9156C11.7566 14.9156 11.5769 14.5912 11.678 14.2953C11.678 14.2953 12.2337 14.2133 12.6722 14.8737C13.1134 15.5305 12.978 15.6314 12.9776 15.6324C12.9773 15.6334 13.7065 16.0303 14.1746 16.3577Z" fill="#FFC130"/>
<path d="M18.8848 18.4282C18.8848 18.4282 18.856 18.6216 18.5188 18.6318C18.5188 18.6318 18.705 18.8678 18.02 18.9567C18.02 18.9567 17.6222 19.0129 16.642 18.9634C15.6618 18.9138 15.1681 19.1038 14.9801 19.4075C14.9801 19.4075 15.0221 19.5679 15.8299 19.1951C15.8299 19.1951 15.6555 19.4946 15.7703 19.509C15.8871 19.5242 16.3722 19.1925 16.3722 19.1925C16.3722 19.1925 16.2155 19.5188 16.3836 19.5359C16.5518 19.5529 16.9916 19.2279 16.9916 19.2279C16.9916 19.2279 16.8438 19.5374 16.9778 19.5453C17.1146 19.552 17.4945 19.2591 17.4945 19.2591C17.4945 19.2591 17.464 19.535 17.6363 19.5174C17.8061 19.5002 18.053 19.2753 18.053 19.2753C18.053 19.2753 18.1215 19.4795 18.2913 19.4623C18.4633 19.4459 18.7535 19.1765 18.7535 19.1765C18.7535 19.1765 18.7642 19.3897 18.8989 19.3716C19.0337 19.3535 19.3055 19.0529 19.3055 19.0529C19.3055 19.0529 19.5148 19.2836 19.7423 19.216C19.9697 19.1483 20.0632 18.8085 20.0632 18.8085C20.0632 18.8085 20.2525 19.0663 20.6282 19.0004C21.0019 18.9337 21.0074 18.667 21.0074 18.667C21.0092 18.6633 19.7887 18.3234 18.8848 18.4282Z" fill="#FFC130"/>
<path d="M26.3712 14.7286C26.2411 14.5485 25.9966 14.7377 25.9966 14.7377C25.3772 15.1285 24.7072 15.2997 24.7072 15.2997C24.9924 15.2177 26.2882 14.2123 26.2871 14.2151C26.2873 14.2146 26.6325 13.9801 26.4764 13.842C26.3179 13.7042 26.0341 13.915 26.0341 13.915C25.3901 14.5007 24.8529 14.6827 24.8529 14.6827C24.8535 14.6812 25.9119 13.7386 26.1066 13.1659C26.302 12.5913 25.7946 13.0459 25.7946 13.0459C25.2568 13.8724 24.7632 14.2557 24.7632 14.2557C25.664 12.9027 24.9751 13.2183 24.9748 13.2193C22.4017 16.9603 17.815 16.9837 17.5472 17.0095C17.287 17.0161 16.9646 17.2527 16.4441 17.5966C15.9261 17.9401 15.4107 17.9843 14.9429 18.1132C14.4761 18.2426 14.5346 18.3909 14.5346 18.3909C14.0303 18.5229 14.1114 18.8121 14.1114 18.8121C14.2058 18.6801 14.4341 18.6825 14.4341 18.6825C14.356 18.737 14.3518 18.7836 14.3518 18.7836C14.5023 18.7043 15.5403 18.6761 16.3388 18.7652C17.1352 18.8557 17.0941 18.7982 17.0941 18.7982C17.043 18.7419 16.4973 18.7288 16.4973 18.7288C16.1085 18.702 15.9772 18.6153 15.9772 18.6153C15.6647 18.7069 15.5154 18.5923 15.5154 18.5923C15.6082 18.5307 15.7012 18.4702 15.7935 18.4096C15.744 18.3973 15.6925 18.3854 15.6416 18.3738C15.7582 18.319 15.8747 18.2633 15.9929 18.2091C15.7158 18.2448 15.4398 18.2799 15.1632 18.3159C15.1632 18.3159 15.1643 18.4123 15.0206 18.471C14.878 18.5303 14.7992 18.4448 14.7992 18.4448C14.6927 18.4724 14.6742 18.429 14.6742 18.429C14.7029 18.4039 14.7946 18.3691 14.8979 18.3384C14.8931 18.3444 14.8883 18.3503 14.8861 18.3561C14.8724 18.3908 14.8953 18.4226 14.9386 18.424C14.981 18.4272 15.0285 18.3995 15.0422 18.3648C15.0517 18.3374 15.0419 18.3145 15.0195 18.3025C15.1558 18.2654 15.2806 18.2364 15.2806 18.2364C15.2803 18.2374 16.2874 17.9226 16.6809 17.6793C17.0724 17.4351 17.6403 17.3137 18.0788 17.3102C18.5201 17.3056 19.4739 17.2122 19.4736 17.2131C19.4736 17.2131 19.7352 16.9623 20.431 16.7136C21.1283 16.4608 22.1101 16.212 22.1097 16.2129C22.1094 16.2139 22.0637 16.0895 22.9671 15.5652C23.8711 15.0396 24.312 15.2521 24.312 15.2521C24.1809 15.5437 23.7742 15.7968 23.7742 15.7968C24.0445 15.7161 24.2024 15.7593 24.2024 15.7593C24.1806 16.0009 23.6111 16.2114 23.6111 16.2114L23.8886 16.3046C23.5716 16.4197 23.2558 16.5375 22.939 16.6582C22.9939 16.6809 23.0499 16.7063 23.1066 16.7307C23.1066 16.7307 22.9104 16.785 22.6438 16.8561C22.3771 16.927 22.5199 17.0087 22.5199 17.0087C22.457 17.1141 21.9899 17.1844 21.9899 17.1844C22.0152 17.2278 22.0386 17.2706 22.0619 17.3133C21.859 17.4506 21.6223 17.3798 21.6223 17.3798C21.6131 17.4574 21.602 17.5334 21.5911 17.6095C20.8037 18.0373 19.8561 18.0729 19.8561 18.0729C21.0312 18.2753 22.2221 17.7296 22.2221 17.7296C22.1174 17.7316 21.8529 17.5206 21.8529 17.5206C22.0788 17.4152 22.6429 17.4409 22.7826 17.4463C22.9229 17.4499 23.0499 17.3855 22.9087 17.3598C22.7654 17.3335 22.4732 17.2354 22.4732 17.2354C23.4184 17.2297 23.533 17.0826 23.5338 17.0807C23.1677 17.056 22.992 16.95 22.992 16.95C23.0561 16.9552 23.6653 16.8606 23.6649 16.8615C23.6653 16.8606 24.4611 16.6758 24.0941 16.6596C23.7267 16.6443 23.6917 16.5769 23.6917 16.5769C24.2837 16.4176 25.0232 16.0818 25.0232 16.0818C25.0232 16.0818 25.9158 15.5251 25.1429 15.7657C24.3701 16.012 24.4214 15.8634 24.4222 15.8614C24.4222 15.8614 25.1451 15.5317 25.8125 15.1749C26.4814 14.8208 26.3708 14.7296 26.3712 14.7286Z" fill="#FFC130"/>
<path d="M18.0273 13.7256C18.4083 13.786 18.3809 14.1219 18.3799 14.1328L17.7559 15.5811L17.5908 14.0078C17.5926 13.9965 17.6467 13.6653 18.0273 13.7256ZM19.125 13.7295C19.5068 13.6693 19.584 13.9991 19.5859 14.0078L19.4395 15.5781L18.7959 14.1328C18.794 14.1211 18.7446 13.7897 19.125 13.7295ZM16.4639 13.5186C16.4683 13.5094 16.6168 13.2068 16.9639 13.376C17.3163 13.5479 17.1816 13.8691 17.1816 13.8691L16.1621 15.0713L16.4639 13.5186ZM20.1904 13.3877C20.5429 13.2158 20.7129 13.5186 20.7129 13.5186L21.0322 15.0625L19.9941 13.8691C19.9941 13.8691 19.8381 13.5596 20.1904 13.3877ZM15.5254 12.7002C15.5254 12.7002 15.7582 12.4429 16.0449 12.71C16.3317 12.9774 16.1094 13.2451 16.1094 13.2451L14.7832 14.0967L15.5254 12.7002ZM21.1133 12.7266C21.3999 12.4596 21.6514 12.7002 21.6514 12.7002L22.4082 14.083L21.0664 13.2451C21.0664 13.2451 20.8265 12.994 21.1133 12.7266ZM18.6514 6.23535C20.5235 6.23535 22.0419 7.84684 22.042 9.83496C22.042 11.8232 20.5236 13.4355 18.6514 13.4355C16.7793 13.4353 15.2617 11.823 15.2617 9.83496C15.2618 7.84698 16.7794 6.23558 18.6514 6.23535ZM14.8594 11.624C14.8686 11.6187 15.1606 11.4519 15.3535 11.7861C15.5496 12.1257 15.2588 12.3164 15.2588 12.3164L13.7412 12.7432L14.8594 11.624ZM21.8105 11.8076C22.0022 11.4756 22.3031 11.6175 22.3164 11.624L23.4453 12.7256L21.917 12.3164C21.9085 12.3115 21.6174 12.1422 21.8105 11.8076ZM14.5254 10.3877C14.5377 10.3848 14.8637 10.3127 14.9502 10.6875C15.0364 11.0618 14.7176 11.1622 14.7051 11.166L13.1289 11.1309L14.5254 10.3877ZM22.6514 10.3877L24.0518 11.1113L22.4717 11.166C22.4717 11.166 22.1316 11.0929 22.2197 10.7109C22.3079 10.3289 22.6514 10.3877 22.6514 10.3877ZM14.5527 9.10059C14.5621 9.10119 14.899 9.12518 14.8721 9.51074C14.8452 9.89561 14.5079 9.8975 14.4971 9.89746L13 9.40234L14.5527 9.10059ZM24.1748 9.38281L22.6797 9.89746C22.6797 9.89746 22.333 9.92631 22.3057 9.53516C22.279 9.15291 22.6083 9.10265 22.623 9.10059L24.1748 9.38281ZM22.5225 8.62207C22.5127 8.62585 22.199 8.74551 22.0605 8.38574C21.92 8.01968 22.2363 7.87598 22.2363 7.87598L23.8027 7.69238L22.5225 8.62207ZM14.9395 7.87695C14.945 7.87902 15.2641 7.99956 15.125 8.3623C14.9869 8.72208 14.6643 8.62646 14.6533 8.62305L13.3662 7.71094L14.9395 7.87695ZM22.0283 7.45898C22.0267 7.46033 21.7607 7.67977 21.5146 7.37598C21.2685 7.07179 21.5247 6.83856 21.5254 6.83789L22.958 6.17871L22.0283 7.45898ZM15.6504 6.83789C15.6504 6.83789 15.9235 7.0527 15.6768 7.35742C15.43 7.66192 15.1475 7.45898 15.1475 7.45898L14.2061 6.19434L15.6504 6.83789ZM21.2168 6.49902C21.212 6.50618 21.023 6.7867 20.7021 6.57031C20.3771 6.35105 20.5547 6.05176 20.5547 6.05176L21.7324 5.00391L21.2168 6.49902ZM16.6211 6.05273C16.6271 6.06159 16.814 6.34087 16.4941 6.55664C16.1706 6.77471 15.9609 6.50147 15.959 6.49902L15.4277 5.01465L16.6211 6.05273ZM20.1729 5.83594C20.171 5.8422 20.0722 6.16788 19.7012 6.05469C19.334 5.94244 19.4051 5.61612 19.4082 5.60254L20.2275 4.25488L20.1729 5.83594ZM17.7676 5.60254C17.7713 5.61464 17.8664 5.9343 17.499 6.04688C17.124 6.16152 17.0029 5.83594 17.0029 5.83594L16.9297 4.26074L17.7676 5.60254ZM18.9873 5.52734C18.9873 5.52734 18.9924 5.87483 18.6006 5.875C18.2085 5.875 18.1885 5.52734 18.1885 5.52734L18.5781 4L18.9873 5.52734Z" fill="#FFC130"/>
</g>
<defs>
<clipPath id="clip0_13_649">
<rect width="32" height="24" rx="3.5" fill="white"/>
</clipPath>
</defs>
</svg>
