<svg width="390" height="369" viewBox="0 0 390 369" fill="none" xmlns="http://www.w3.org/2000/svg">
<g style="mix-blend-mode:plus-lighter" opacity="0.2">
<path fill-rule="evenodd" clip-rule="evenodd" d="M325.76 94.7432L407.538 94.7432V176.522H398.776C358.45 176.522 325.76 143.831 325.76 103.505V94.7432Z" fill="#A3A3A3" fill-opacity="0.2"/>
<path fill-rule="evenodd" clip-rule="evenodd" d="M317.781 94.7432L236.003 94.7432V176.522H244.765C285.091 176.522 317.781 143.831 317.781 103.505V94.7432Z" fill="#A3A3A3" fill-opacity="0.2"/>
<path fill-rule="evenodd" clip-rule="evenodd" d="M224.035 176.522H143.254V94.7433H151.909C191.743 94.7433 224.035 127.434 224.035 167.76V176.522Z" fill="#A3A3A3" fill-opacity="0.2"/>
<path fill-rule="evenodd" clip-rule="evenodd" d="M51.5027 176.522H133.281V94.7433H124.519C84.1933 94.7433 51.5027 127.434 51.5027 167.76V176.522Z" fill="#A3A3A3" fill-opacity="0.2"/>
<path fill-rule="evenodd" clip-rule="evenodd" d="M51.5027 0L133.281 0V81.7784H124.519C84.1932 81.7784 51.5027 49.0878 51.5027 8.76197V0Z" fill="#A3A3A3" fill-opacity="0.2"/>
<path fill-rule="evenodd" clip-rule="evenodd" d="M223.038 81.7784L141.259 81.7784V-7.62939e-06H150.021C190.347 -7.62939e-06 223.038 32.6906 223.038 73.0164V81.7784Z" fill="#A3A3A3" fill-opacity="0.2"/>
<path fill-rule="evenodd" clip-rule="evenodd" d="M315.786 81.7784L235.005 81.7784V-7.62939e-06H243.661C283.495 -7.62939e-06 315.786 32.6906 315.786 73.0164V81.7784Z" fill="#A3A3A3" fill-opacity="0.2"/>
<path d="M405.038 81.7784V79.7334H405.494V79.2784H407.538V75.6446H405.038V71.5557H407.538V67.4668H405.038V63.378H407.538V59.2891H405.038V55.2002H407.538V51.1114H405.038V47.0225H407.538V42.9336H405.038V38.8448H407.538V34.7559H405.038V30.667H407.538V26.5782H405.038V22.4893H407.538V18.4004H405.038V14.3116H407.538V10.2227H405.038V6.13383H407.538V2.50005H405.347V2.04399H405.038V4.57764e-05H400.967V2.50005H398.776C398.112 2.50005 397.451 2.50919 396.792 2.52739L396.722 0.0293427C395.35 0.0672525 393.986 0.144196 392.634 0.256882L392.841 2.74614C391.52 2.85617 390.209 3.00282 388.91 3.18462L388.563 0.70903C387.205 0.899113 385.859 1.12792 384.526 1.39165L385.011 3.84184C383.713 4.09868 382.427 4.39176 381.156 4.7188L380.533 2.2979H380.532C379.205 2.63932 377.892 3.01862 376.595 3.43169L377.354 5.81157C376.094 6.21288 374.849 6.64906 373.621 7.11821L372.727 4.78325C371.449 5.27166 370.188 5.79651 368.945 6.35356L369.968 8.63383C368.762 9.17414 367.574 9.74664 366.405 10.3516L365.256 8.13383C364.041 8.76256 362.846 9.42351 361.673 10.1172L362.945 12.2686C361.808 12.9405 360.692 13.6433 359.597 14.376L358.207 12.2999C357.071 13.0603 355.958 13.8516 354.868 14.6729L356.373 16.668C355.319 17.4624 354.288 18.2857 353.281 19.1368L351.667 17.2286C350.624 18.1103 349.606 19.021 348.614 19.959L350.332 21.7745C349.373 22.6809 348.44 23.6139 347.534 24.5723L345.718 22.8555C344.78 23.8473 343.869 24.8651 342.987 25.9082L344.896 27.5215C344.045 28.5284 343.222 29.5594 342.427 30.6133L340.431 29.1094C339.61 30.199 338.819 31.3124 338.058 32.4483L340.135 33.8379C339.403 34.9325 338.7 36.049 338.028 37.1856L335.876 35.9141C335.182 37.0876 334.521 38.2826 333.892 39.4971L336.111 40.6456C335.506 41.8142 334.934 43.0025 334.393 44.2081L332.112 43.1866C331.555 44.4297 331.031 45.691 330.543 46.9698L332.878 47.8614C332.409 49.0896 331.972 50.3347 331.571 51.5948L329.19 50.837C328.777 52.1339 328.398 53.4462 328.056 54.7735L330.478 55.3965C330.151 56.668 329.858 57.9538 329.601 59.252L327.15 58.7676C326.887 60.1004 326.658 61.446 326.468 62.8038H326.469L328.944 63.1504C328.762 64.4494 328.616 65.7601 328.506 67.0811L326.015 66.875C325.903 68.2279 325.826 69.5911 325.788 70.9639L328.287 71.0323C328.269 71.6914 328.26 72.353 328.26 73.0166V75.2071H325.76V79.2784H327.804V79.5879H328.26V81.7784H331.893V79.2784H335.982V81.7784H340.071V79.2784H344.16V81.7784H348.249V79.2784H352.338V81.7784H356.427V79.2784H360.515V81.7784H364.604V79.2784H368.693V81.7784H372.782V79.2784H376.871V81.7784H380.96V79.2784H385.049V81.7784H389.137V79.2784H393.226V81.7784H397.315V79.2784H401.404V81.7784H405.038Z" stroke="#A3A3A3" stroke-opacity="0.3" stroke-width="5" stroke-dasharray="4 4"/>
<path d="M221.535 287.222V289.267H221.991V289.722H224.035V293.355H221.535V297.444H224.035V301.533H221.535V305.622H224.035V309.711H221.535V313.8H224.035V317.889H221.535V321.977H224.035V326.066H221.535V330.155H224.035V334.244H221.535V338.333H224.035V342.422H221.535V346.511H224.035V350.6H221.535V354.688H224.035V358.777H221.535V362.866H224.035V366.5H221.845V366.956H221.535V369H217.464V366.5H215.273C214.61 366.5 213.948 366.491 213.289 366.473L213.22 368.971C211.847 368.933 210.484 368.856 209.131 368.743L209.338 366.254C208.017 366.144 206.706 365.997 205.407 365.815L205.06 368.291C203.702 368.101 202.356 367.872 201.023 367.608L201.509 365.158C200.21 364.901 198.925 364.608 197.653 364.281L197.03 366.702H197.029C195.702 366.361 194.39 365.981 193.093 365.568L193.851 363.188C192.591 362.787 191.346 362.351 190.118 361.882L189.225 364.217C187.946 363.728 186.685 363.203 185.442 362.646L186.465 360.366C185.259 359.826 184.071 359.253 182.902 358.648L181.753 360.866C180.538 360.237 179.343 359.576 178.17 358.883L179.442 356.731C178.306 356.059 177.189 355.357 176.095 354.624L174.704 356.7C173.568 355.94 172.455 355.148 171.365 354.327L172.87 352.332C171.816 351.538 170.785 350.714 169.778 349.863L168.164 351.771C167.121 350.89 166.103 349.979 165.111 349.041L166.829 347.225C165.871 346.319 164.938 345.386 164.031 344.428L162.215 346.144C161.277 345.153 160.366 344.135 159.484 343.092L161.393 341.478C160.542 340.472 159.719 339.441 158.925 338.387L156.929 339.891C156.107 338.801 155.316 337.688 154.556 336.552L156.633 335.162C155.9 334.067 155.197 332.951 154.525 331.814L152.373 333.086C151.679 331.912 151.018 330.717 150.39 329.503L152.608 328.354C152.003 327.186 151.431 325.997 150.891 324.792L148.609 325.813C148.052 324.57 147.528 323.309 147.04 322.03L149.375 321.139C148.906 319.91 148.47 318.665 148.068 317.405L145.687 318.163C145.274 316.866 144.895 315.554 144.554 314.226L146.975 313.603C146.648 312.332 146.355 311.046 146.099 309.748L143.647 310.232C143.384 308.9 143.155 307.554 142.965 306.196H142.966L145.441 305.85C145.26 304.551 145.113 303.24 145.003 301.919L142.513 302.125C142.4 300.772 142.323 299.409 142.285 298.036L144.784 297.968C144.766 297.309 144.757 296.647 144.757 295.983V293.793H142.257V289.722H144.302V289.412H144.757V287.222H148.391V289.722H152.479V287.222H156.568V289.722H160.657V287.222H164.746V289.722H168.835V287.222H172.924V289.722H177.013V287.222H181.101V289.722H185.19V287.222H189.279V289.722H193.368V287.222H197.457V289.722H201.546V287.222H205.635V289.722H209.724V287.222H213.812V289.722H217.901V287.222H221.535Z" stroke="#A3A3A3" stroke-opacity="0.3" stroke-width="5" stroke-dasharray="4 4"/>
<path fill-rule="evenodd" clip-rule="evenodd" d="M134.278 287.222H52.5L52.5 369H61.262C101.588 369 134.278 336.309 134.278 295.984V287.222Z" fill="#A3A3A3" fill-opacity="0.2"/>
<path fill-rule="evenodd" clip-rule="evenodd" d="M40.5324 369H-40.2486L-40.2486 287.222H-31.5935C8.24055 287.222 40.5324 319.912 40.5324 360.238V369Z" fill="#A3A3A3" fill-opacity="0.2"/>
<path fill-rule="evenodd" clip-rule="evenodd" d="M39.5352 274.257H-42.2432L-42.2432 192.478H-33.4812C6.8446 192.478 39.5352 225.169 39.5352 265.495V274.257Z" fill="#A3A3A3" fill-opacity="0.2"/>
<path d="M326.265 369V366.955H325.809V366.5H323.765V362.866H326.265V358.777H323.765V354.688H326.265V350.6H323.765V346.511H326.265V342.422H323.765V338.333H326.265V334.244H323.765V330.155H326.265V326.066H323.765V321.978H326.265V317.889H323.765V313.8H326.265V309.711H323.765V305.622H326.265V301.533H323.765V297.444H326.265V293.355H323.765V289.722H325.955V289.266H326.265V287.222H330.336V289.722H332.527C333.19 289.722 333.852 289.731 334.511 289.749L334.58 287.251C335.953 287.289 337.316 287.366 338.669 287.479L338.462 289.968C339.783 290.078 341.094 290.224 342.393 290.406L342.739 287.931C344.098 288.121 345.443 288.35 346.777 288.613L346.291 291.063C347.589 291.32 348.875 291.613 350.147 291.94L350.77 289.52H350.771C352.098 289.861 353.41 290.24 354.707 290.653L353.948 293.033C355.209 293.435 356.454 293.871 357.682 294.34L358.575 292.005C359.854 292.493 361.115 293.018 362.358 293.575L361.335 295.855C362.541 296.396 363.729 296.968 364.898 297.573L366.047 295.355C367.262 295.984 368.457 296.645 369.63 297.339L368.358 299.49C369.494 300.162 370.611 300.865 371.705 301.598L373.096 299.521C374.232 300.282 375.345 301.073 376.435 301.895L374.93 303.89C375.984 304.684 377.015 305.507 378.022 306.358L379.636 304.45C380.679 305.332 381.697 306.243 382.689 307.181L380.971 308.996C381.929 309.902 382.862 310.836 383.769 311.794L385.585 310.077C386.523 311.069 387.434 312.087 388.316 313.13L386.406 314.743C387.257 315.75 388.081 316.781 388.875 317.835L390.871 316.331C391.693 317.421 392.484 318.534 393.244 319.67L391.167 321.06C391.9 322.154 392.603 323.271 393.275 324.407L395.427 323.136C396.121 324.309 396.782 325.504 397.41 326.719L395.192 327.867C395.797 329.036 396.369 330.224 396.909 331.43L399.191 330.408C399.748 331.651 400.272 332.913 400.76 334.191L398.425 335.083C398.894 336.311 399.33 337.556 399.732 338.816L402.112 338.059C402.526 339.356 402.905 340.668 403.246 341.995L400.824 342.618C401.151 343.89 401.445 345.175 401.701 346.474L404.153 345.989C404.416 347.322 404.645 348.668 404.835 350.025H404.834L402.359 350.372C402.54 351.671 402.687 352.982 402.797 354.303L405.287 354.097C405.4 355.45 405.477 356.813 405.515 358.186L403.016 358.254C403.034 358.913 403.043 359.575 403.043 360.238V362.429H405.543V366.5H403.498V366.81H403.043V369H399.409V366.5H395.32V369H391.232V366.5H387.143V369H383.054V366.5H378.965V369H374.876V366.5H370.787V369H366.698V366.5H362.61V369H358.521V366.5H354.432V369H350.343V366.5H346.254V369H342.165V366.5H338.076V369H333.987V366.5H329.899V369H326.265Z" stroke="#A3A3A3" stroke-opacity="0.3" stroke-width="5" stroke-dasharray="4 4"/>
<path fill-rule="evenodd" clip-rule="evenodd" d="M233.011 369H313.792V287.222H305.137C265.303 287.222 233.011 319.912 233.011 360.238V369Z" fill="#A3A3A3" fill-opacity="0.2"/>
<path fill-rule="evenodd" clip-rule="evenodd" d="M233.011 192.478H313.792V274.257H305.137C265.303 274.257 233.011 241.566 233.011 201.24V192.478Z" fill="#A3A3A3" fill-opacity="0.2"/>
<path fill-rule="evenodd" clip-rule="evenodd" d="M403.549 274.257H322.768V192.478H331.423C371.257 192.478 403.549 225.169 403.549 265.495V274.257Z" fill="#A3A3A3" fill-opacity="0.2"/>
<path d="M54.0026 274.257V272.212H53.5221V271.757H51.5026V268.123H54.0026V264.034H51.5026V259.945H54.0026V255.856H51.5026V251.767H54.0026V247.679H51.5026V243.59H54.0026V239.501H51.5026V235.412H54.0026V231.323H51.5026V227.234H54.0026V223.145H51.5026V219.057H54.0026L54.0026 214.968H51.5026V210.879H54.0026V206.79H51.5026V202.701H54.0026V198.612H51.5026V194.978H53.6666V194.522H54.0026V192.478H57.9938V194.978H60.1578C60.8169 194.978 61.474 194.987 62.1285 195.006L62.1989 192.509C63.5632 192.547 64.9179 192.624 66.2623 192.738L66.0514 195.227C67.363 195.339 68.6641 195.487 69.9537 195.671L70.3063 193.196C71.6559 193.389 72.9934 193.62 74.318 193.887L73.8239 196.336C75.1121 196.595 76.3875 196.891 77.649 197.222L78.2828 194.805C79.6006 195.15 80.9036 195.532 82.191 195.95L81.4196 198.326C82.6686 198.731 83.9025 199.171 85.1198 199.644L86.026 197.316C87.2939 197.81 88.5447 198.338 89.777 198.9L88.7379 201.174C89.9313 201.719 91.1076 202.296 92.2643 202.906L93.4303 200.696C94.6322 201.33 95.8142 201.997 96.9752 202.696L95.6862 204.837C96.8094 205.513 97.9123 206.22 98.9938 206.958L100.402 204.893C101.524 205.659 102.624 206.455 103.7 207.281L102.177 209.263C103.217 210.061 104.234 210.888 105.227 211.743L106.858 209.85C107.887 210.735 108.89 211.649 109.868 212.591L108.133 214.391C109.077 215.3 109.996 216.235 110.888 217.196L112.719 215.497C113.642 216.491 114.539 217.51 115.406 218.556L113.483 220.151C114.319 221.159 115.128 222.191 115.909 223.246L117.919 221.76C118.725 222.849 119.501 223.963 120.248 225.099L118.159 226.471C118.878 227.564 119.567 228.679 120.226 229.814L122.388 228.56C123.068 229.732 123.718 230.924 124.334 232.137L122.105 233.268C122.698 234.434 123.259 235.62 123.788 236.822L126.076 235.816C126.621 237.055 127.134 238.312 127.612 239.586L125.27 240.464C125.729 241.688 126.156 242.928 126.548 244.184L128.934 243.438C129.338 244.73 129.707 246.036 130.041 247.357L127.617 247.968C127.936 249.233 128.222 250.513 128.473 251.805L130.926 251.329C131.184 252.655 131.407 253.994 131.592 255.345L129.116 255.684C129.293 256.975 129.436 258.279 129.544 259.593L132.034 259.391C132.144 260.735 132.219 262.09 132.256 263.455L129.757 263.521C129.775 264.177 129.784 264.835 129.784 265.495V267.685H132.284V271.757H130.264V272.066H129.784V274.257H126.225V271.757H122.186V274.257H118.147V271.757H114.108V274.257H110.069V271.757H106.03V274.257H101.991V271.757H97.9518V274.257H93.9127V271.757H89.8737V274.257H85.8346V271.757H81.7955V274.257H77.7565V271.757H73.7174V274.257H69.6783V271.757H65.6393V274.257H61.6002V271.757H57.5612V274.257H54.0026Z" stroke="#A3A3A3" stroke-opacity="0.3" stroke-width="5" stroke-dasharray="4 4"/>
<path fill-rule="evenodd" clip-rule="evenodd" d="M142.257 274.257H224.035V192.478H215.273C174.947 192.478 142.257 225.169 142.257 265.495V274.257Z" fill="#A3A3A3" fill-opacity="0.2"/>
</g>
</svg>
