<svg width="32" height="24" viewBox="0 0 32 24" fill="none" xmlns="http://www.w3.org/2000/svg">
<g clip-path="url(#clip0_12_133)">
<rect width="32" height="24" rx="3.5" fill="white"/>
<path fill-rule="evenodd" clip-rule="evenodd" d="M0 0H32V24H0V0Z" fill="#E31D1C"/>
<path d="M32 21.9998V23.9998H0V21.9998H32ZM32 19.9998H0V17.9998H32V19.9998ZM32 15.9998H0V13.9998H32V15.9998ZM32 11.9998H0V9.9998H32V11.9998ZM32 7.9998H0V5.9998H32V7.9998ZM32 3.9998H0V1.9998H32V3.9998Z" fill="#F7FCFF"/>
<rect width="18" height="14" fill="#2E42A5"/>
<path d="M2.67126 10.1402H3.19958L2.78455 10.5602L2.94568 11.2232L2.4281 10.8502L1.89392 11.2232L2.07458 10.5602L1.59998 10.1402H2.22009L2.4281 9.60019L2.67126 10.1402ZM6.67126 10.1402H7.19958L6.78455 10.5602L6.94568 11.2232L6.4281 10.8502L5.89392 11.2232L6.07458 10.5602L5.59998 10.1402H6.22009L6.4281 9.60019L6.67126 10.1402ZM10.6713 10.1402H11.1996L10.7845 10.5602L10.9457 11.2232L10.4281 10.8502L9.89392 11.2232L10.0746 10.5602L9.59998 10.1402H10.2201L10.4281 9.60019L10.6713 10.1402ZM14.6713 10.1402H15.1996L14.7845 10.5602L14.9457 11.2232L14.4281 10.8502L13.8939 11.2232L14.0746 10.5602L13.6 10.1402H14.2201L14.4281 9.60019L14.6713 10.1402ZM4.67126 8.14121H5.19958L4.78455 8.56016L4.94568 9.22324L4.4281 8.85117L3.89392 9.22324L4.07458 8.56016L3.59998 8.14121H4.22009L4.4281 7.60019L4.67126 8.14121ZM8.67126 8.14121H9.19958L8.78455 8.56016L8.94568 9.22324L8.4281 8.85117L7.89392 9.22324L8.07458 8.56016L7.59998 8.14121H8.22009L8.4281 7.60019L8.67126 8.14121ZM12.6713 8.14121H13.1996L12.7845 8.56016L12.9457 9.22324L12.4281 8.85117L11.8939 9.22324L12.0746 8.56016L11.6 8.14121H12.2201L12.4281 7.60019L12.6713 8.14121ZM2.67126 6.14023H3.19958L2.78455 6.56016L2.94568 7.22227L2.4281 6.85019L1.89392 7.22227L2.07458 6.56016L1.59998 6.14023H2.22009L2.4281 5.60019L2.67126 6.14023ZM6.67126 6.14023H7.19958L6.78455 6.56016L6.94568 7.22227L6.4281 6.85019L5.89392 7.22227L6.07458 6.56016L5.59998 6.14023H6.22009L6.4281 5.60019L6.67126 6.14023ZM10.6713 6.14023H11.1996L10.7845 6.56016L10.9457 7.22227L10.4281 6.85019L9.89392 7.22227L10.0746 6.56016L9.59998 6.14023H10.2201L10.4281 5.60019L10.6713 6.14023ZM14.6713 6.14023H15.1996L14.7845 6.56016L14.9457 7.22227L14.4281 6.85019L13.8939 7.22227L14.0746 6.56016L13.6 6.14023H14.2201L14.4281 5.60019L14.6713 6.14023ZM4.67126 4.14023H5.19958L4.78455 4.56016L4.94568 5.22324L4.4281 4.85019L3.89392 5.22324L4.07458 4.56016L3.59998 4.14023H4.22009L4.4281 3.60019L4.67126 4.14023ZM8.67126 4.14023H9.19958L8.78455 4.56016L8.94568 5.22324L8.4281 4.85019L7.89392 5.22324L8.07458 4.56016L7.59998 4.14023H8.22009L8.4281 3.60019L8.67126 4.14023ZM12.6713 4.14023H13.1996L12.7845 4.56016L12.9457 5.22324L12.4281 4.85019L11.8939 5.22324L12.0746 4.56016L11.6 4.14023H12.2201L12.4281 3.60019L12.6713 4.14023ZM2.67126 2.14121H3.19958L2.78455 2.56016L2.94568 3.22324L2.4281 2.85117L1.89392 3.22324L2.07458 2.56016L1.59998 2.14121H2.22009L2.4281 1.60019L2.67126 2.14121ZM6.67126 2.14121H7.19958L6.78455 2.56016L6.94568 3.22324L6.4281 2.85117L5.89392 3.22324L6.07458 2.56016L5.59998 2.14121H6.22009L6.4281 1.60019L6.67126 2.14121ZM10.6713 2.14121H11.1996L10.7845 2.56016L10.9457 3.22324L10.4281 2.85117L9.89392 3.22324L10.0746 2.56016L9.59998 2.14121H10.2201L10.4281 1.60019L10.6713 2.14121ZM14.6713 2.14121H15.1996L14.7845 2.56016L14.9457 3.22324L14.4281 2.85117L13.8939 3.22324L14.0746 2.56016L13.6 2.14121H14.2201L14.4281 1.60019L14.6713 2.14121Z" fill="#F7FCFF"/>
</g>
<defs>
<clipPath id="clip0_12_133">
<rect width="32" height="24" rx="3.5" fill="white"/>
</clipPath>
</defs>
</svg>
